<svg xmlns="http://www.w3.org/2000/svg" width="50" height="50" viewBox="0 0 50 50">
    <defs>
        <linearGradient id="a" x1="-14.237%" x2="110.263%" y1="0%" y2="100%">
            <stop offset="0%" stop-color="#27E1F4"/>
            <stop offset="100%" stop-color="#D51571"/>
        </linearGradient>
    </defs>
    <path fill="url(#a)" fill-rule="nonzero" d="M40.363 48.04c-4.234 0-7.68-3.446-7.68-7.683 0-4.238 3.446-7.685 7.68-7.685 4.235 0 7.68 3.447 7.68 7.685 0 4.237-3.445 7.684-7.68 7.684zm-19.691-2.243c-5.149 0-9.975-.73-13.588-2.055-3.21-1.176-5.127-2.738-5.127-4.182v-6.855c1.074.912 2.57 1.732 4.453 2.422 3.824 1.4 8.888 2.174 14.261 2.174 3.96 0 7.783-.426 11.053-1.215a9.586 9.586 0 0 0-.998 4.271c0 1.526.355 2.969.99 4.254-3.187.768-7.054 1.186-11.045 1.186zM7.084 4.014c3.613-1.324 8.44-2.055 13.588-2.055 5.146 0 9.972.73 13.588 2.055 3.209 1.176 5.125 2.738 5.125 4.181 0 1.442-1.916 3.006-5.125 4.182-3.615 1.324-8.442 2.053-13.588 2.053-5.149 0-9.975-.729-13.588-2.053-3.21-1.176-5.127-2.74-5.127-4.182 0-1.443 1.917-3.005 5.127-4.181zm32.3 14.636c0 1.442-1.915 3.006-5.124 4.182-3.615 1.324-8.442 2.053-13.588 2.053-5.149 0-9.975-.729-13.588-2.053-3.21-1.176-5.127-2.74-5.127-4.182v-6.855c1.074.912 2.57 1.73 4.453 2.422 3.824 1.4 8.888 2.172 14.261 2.172 5.371 0 10.436-.772 14.26-2.172 1.883-.692 3.38-1.51 4.454-2.422v6.855zm-5.82 14.88c-3.527 1.167-8.095 1.81-12.892 1.81-5.149 0-9.975-.729-13.588-2.053-3.21-1.176-5.127-2.738-5.127-4.182V22.25c1.074.912 2.57 1.732 4.453 2.422 3.824 1.4 8.888 2.172 14.261 2.172 5.371 0 10.436-.772 14.26-2.172 1.883-.69 3.38-1.51 4.454-2.422v8.511a9.614 9.614 0 0 0-5.821 2.768zm7.778-2.768V8.72a.959.959 0 0 0-.018-.184 3.31 3.31 0 0 0 .018-.342c0-2.369-2.276-4.507-6.41-6.021C31.108.77 26.043 0 20.672 0 15.299 0 10.234.771 6.41 2.174 2.277 3.687 0 5.826 0 8.195c0 .116.008.229.018.342A.959.959 0 0 0 0 8.721v30.84c0 2.369 2.277 4.507 6.41 6.021 3.824 1.402 8.889 2.174 14.262 2.174 4.478 0 8.66-.485 12.15-1.402A9.621 9.621 0 0 0 40.363 50C45.678 50 50 45.674 50 40.358c0-4.989-3.803-9.102-8.658-9.596z"/>
</svg>
