<svg xmlns="http://www.w3.org/2000/svg" width="47" height="55" viewBox="0 0 47 55">
    <defs>
        <linearGradient id="a" x1="0%" y1="0%" y2="100%">
            <stop offset="0%" stop-color="#27E1F4"/>
            <stop offset="100%" stop-color="#D51571"/>
        </linearGradient>
    </defs>
    <path fill="url(#a)" fill-rule="nonzero" d="M.005 39.165c0 .43.218.831.579 1.07l22.21 14.555c.428.28.98.28 1.405 0L46.416 40.24c.364-.238.584-.64.584-1.074 0-.434-.22-.837-.584-1.075l-7.136-4.649 7.136-4.674c.364-.238.584-.64.584-1.074 0-.434-.22-.837-.584-1.075l-7.136-4.719 7.136-4.674c.364-.238.584-.641.584-1.074 0-.434-.22-.837-.584-1.075L24.206.555c-.428-.28-.98-.28-1.405 0L.584 15.104A1.286 1.286 0 0 0 0 16.178c0 .434.22.837.584 1.075l7.136 4.649L.584 26.6a1.283 1.283 0 0 0 0 2.15l7.136 4.693-7.136 4.649c-.361.238-.579.638-.579 1.072zM3.622 16.18L23.5 3.163 43.378 16.18 23.5 29.198 3.622 16.181zm0 11.492l6.412-4.213 12.742 8.336c.426.278.977.278 1.403 0l12.787-8.336 6.412 4.213L23.5 40.69 3.622 27.673zm6.412 7.279l12.742 8.336c.426.278.977.278 1.403 0l12.787-8.336 6.412 4.213L23.5 52.188 3.622 39.165l6.412-4.213z"/>
</svg>
