<svg xmlns="http://www.w3.org/2000/svg" width="1440" height="389" viewBox="0 0 1440 389">
    <defs>
        <linearGradient id="a" x1="4.9%" x2="92.413%" y1="22.175%" y2="65.018%">
            <stop offset="0%" stop-color="#27E1F4"/>
            <stop offset="49.724%" stop-color="#6C90C0" stop-opacity="0"/>
            <stop offset="99.906%" stop-color="#D51571" stop-opacity=".767"/>
        </linearGradient>
    </defs>
    <path fill="url(#a)" fill-rule="evenodd" d="M1385.95 345.159l-336.255-26.515c.01.219.015.438.015.66 0 8.078-6.54 14.627-14.606 14.627-8.067 0-14.606-6.549-14.606-14.628 0-3.803 1.45-7.268 3.826-9.87L915.907 236.44a14.572 14.572 0 0 1-11.503 5.613c-8.067 0-14.606-6.55-14.606-14.628 0-8.08 6.54-14.628 14.606-14.628 8.066 0 14.606 6.549 14.606 14.628 0 2.936-.864 5.67-2.351 7.961l108.596 73.115a14.54 14.54 0 0 1 8.484-3.763L983.034 32.347a14.532 14.532 0 0 1-6.163 1.362c-8.066 0-14.606-6.55-14.606-14.628 0-8.08 6.54-14.628 14.606-14.628 8.067 0 14.606 6.549 14.606 14.628 0 5.39-2.91 10.099-7.243 12.637l50.81 272.957h.06c3.019 0 5.824.917 8.152 2.489L1206.57 90.57a14.617 14.617 0 0 1-6.197-11.962c0-8.08 6.54-14.629 14.606-14.629 6.008 0 11.168 3.633 13.411 8.826l307.508-50.47a14.698 14.698 0 0 1-.363-3.254c0-8.08 6.54-14.628 14.606-14.628 8.066 0 14.605 6.549 14.605 14.628 0 6.824-4.665 12.557-10.976 14.173l-52.373 142.934a14.605 14.605 0 0 1 5.117 11.12c0 8.08-6.54 14.63-14.606 14.63-8.067 0-14.606-6.55-14.606-14.63 0-8.078 6.54-14.627 14.606-14.627 3.134 0 6.038.988 8.417 2.671l51.957-141.799c-.699.103-1.414.156-2.141.156-6.496 0-12-4.246-13.899-10.118l-307.384 50.448c.471 1.438.726 2.973.726 4.569 0 2.875-.828 5.557-2.26 7.82l163.05 251.662a14.538 14.538 0 0 1 9.655-3.652c8.067 0 14.606 6.55 14.606 14.629s-6.539 14.628-14.606 14.628c-8.066 0-14.605-6.55-14.605-14.628 0-1.354.183-2.664.527-3.908zm3.476-6.153L1226.523 87.57c-2.672 3.447-6.85 5.666-11.544 5.666-2.666 0-5.165-.715-7.317-1.965l-163.366 216.664a14.616 14.616 0 0 1 5.283 9.402l336.784 26.556a14.637 14.637 0 0 1 3.063-4.887zm-614.36-223.954a14.528 14.528 0 0 0 6.402 1.477c8.066 0 14.606-6.55 14.606-14.628 0-8.08-6.54-14.628-14.606-14.628-8.067 0-14.606 6.549-14.606 14.628 0 1.391.194 2.738.557 4.013L520.016 183.8c-1.57-6.384-7.324-11.12-14.183-11.12-5.863 0-10.918 3.46-13.243 8.451L252.566 49.061l.002-.217c0-8.079-6.54-14.628-14.606-14.628-8.067 0-14.606 6.55-14.606 14.628 0 2.99.896 5.77 2.433 8.086L106.484 189.492a14.523 14.523 0 0 0-8.28-2.577 14.54 14.54 0 0 0-9.867 3.842L-97.755 86.364a14.576 14.576 0 0 0 2.22-7.756c0-8.08-6.54-14.629-14.606-14.629-8.066 0-14.605 6.55-14.605 14.629s6.539 14.628 14.605 14.628c4.757 0 8.982-2.277 11.649-5.802L87.39 191.71a14.587 14.587 0 0 0-3.792 9.834c0 1.055.111 2.084.323 3.077L-9.287 248.25c-2.671-3.461-6.858-5.69-11.563-5.69-8.067 0-14.606 6.55-14.606 14.628 0 8.08 6.54 14.628 14.606 14.628 8.066 0 14.605-6.549 14.605-14.628 0-2.894-.839-5.592-2.287-7.863l92.786-43.432a14.663 14.663 0 0 0 6.434 8.196L-55.836 497.684a14.528 14.528 0 0 0-6.424-1.488c-8.067 0-14.606 6.55-14.606 14.628 0 8.08 6.54 14.629 14.606 14.629 8.066 0 14.605-6.55 14.605-14.629 0-5.307-2.822-9.955-7.045-12.518L91.826 214.707a14.529 14.529 0 0 0 6.377 1.465c6.276 0 11.626-3.964 13.694-9.527l184.478 121.064a14.58 14.58 0 0 0-1.845 7.123c0 8.079 6.539 14.628 14.605 14.628 8.067 0 14.606-6.55 14.606-14.628 0-8.08-6.54-14.628-14.606-14.628-5.021 0-9.451 2.538-12.08 6.403l-184.75-121.242c.329-1.218.504-2.5.504-3.821 0-4.533-2.058-8.585-5.29-11.268l119.05-132.278a14.57 14.57 0 0 0 11.393 5.475c7.512 0 13.699-5.68 14.515-12.985l239.616 131.847a14.622 14.622 0 0 0-.866 4.974c0 8.079 6.54 14.628 14.606 14.628.34 0 .678-.012 1.013-.035l15.912 149.57c-6.883 1.182-12.12 7.187-12.12 14.417 0 8.08 6.54 14.629 14.606 14.629 8.066 0 14.605-6.55 14.605-14.629s-6.539-14.628-14.605-14.628c-.405 0-.806.017-1.202.049l-15.91-149.553c6.974-1.104 12.307-7.153 12.307-14.448 0-.76-.058-1.505-.17-2.232l247.559-77.935a14.673 14.673 0 0 0 6.077 7.276L668.204 237.922a14.522 14.522 0 0 0-7.084-1.832c-8.066 0-14.606 6.549-14.606 14.628s6.54 14.628 14.606 14.628c8.067 0 14.606-6.55 14.606-14.628a14.62 14.62 0 0 0-6.408-12.108l105.748-123.558z" opacity=".15" transform="translate(0 -4)"/>
</svg>