<svg height="496pt" viewBox="0 0 496 496" width="496pt" xmlns="http://www.w3.org/2000/svg" xmlns:xlink="http://www.w3.org/1999/xlink"><linearGradient id="a" gradientUnits="userSpaceOnUse" x1="248" x2="248" y1="496" y2="0"><stop offset="0" stop-color="#9f2fff"/><stop offset="1" stop-color="#0bb1d3"/></linearGradient><path d="m200 448h112v16h-112zm275.808594-226.601562 20.191406 4.042968v45.117188l-20.191406 4.042968c-1.511719 4.78125-3.441406 9.414063-5.746094 13.855469l11.433594 17.136719-31.894532 31.894531-17.144531-11.425781c-4.441406 2.304688-9.074219 4.21875-13.847656 5.738281l-4.058594 20.199219h-14.550781v104c0 22.054688-17.945312 40-40 40h-208c-22.054688 0-40-17.945312-40-40v-168h-88c-13.230469 0-24-10.769531-24-24v-144c0-13.230469 10.769531-24 24-24h88v-56c0-22.054688 17.945312-40 40-40h208c22.054688 0 40 17.945312 40 40v104h14.550781l4.050781 20.191406c4.78125 1.519532 9.414063 3.441406 13.847657 5.738282l17.144531-11.425782 31.894531 31.894532-11.433593 17.136718c2.3125 4.449219 4.234374 9.089844 5.753906 13.863282zm-91.808594-77.398438v-64h-16v71.214844l1.449219-7.214844zm-81.496094 46.40625 31.894532-31.894531 17.144531 11.425781c.144531-.082031.304687-.136719.457031-.210938v-89.726562h-192v16h40c10.414062 0 19.214844 6.710938 22.527344 16h113.472656v16h-112v16h88v16h-88v16h48v16h-48v16h48v16h-48v16h48v16h-48v16h48v16h-48v29.222656l-55.792969-29.222656h-8.207031v128h192v-89.71875c-.152344-.074219-.304688-.136719-.457031-.210938l-17.144531 11.425782-31.894532-31.894532 11.433594-17.136718c-2.304688-4.441406-4.226562-9.074219-5.746094-13.855469l-20.191406-4.050781v-45.117188l20.191406-4.042968c1.511719-4.78125 3.441406-9.414063 5.746094-13.855469zm-174.503906-150.40625v24h256v-24c0-13.230469-10.769531-24-24-24h-208c-13.230469 0-24 10.769531-24 24zm0 56h16v-16h-16zm-104 176h148.152344l35.847656 18.777344v-170.777344c0-4.40625-3.585938-8-8-8h-176c-4.414062 0-8 3.59375-8 8v144c0 4.40625 3.585938 8 8 8zm104 16v128h16v-128zm256 168v-24h-256v24c0 13.230469 10.769531 24 24 24h208c13.230469 0 24-10.769531 24-24zm0-104h-14.550781l-1.449219-7.214844v71.214844h16zm96-113.441406-17.054688-3.414063-1.242187-4.878906c-1.710937-6.707031-4.351563-13.097656-7.871094-19l-2.574219-4.335937 9.644532-14.480469-13.351563-13.351563-14.488281 9.65625-4.328125-2.585937c-5.894531-3.511719-12.285156-6.160157-18.992187-7.863281l-4.886719-1.242188-3.40625-17.0625h-18.890625l-3.40625 17.054688-4.886719 1.242187c-6.707031 1.703125-13.097656 4.351563-18.992187 7.863281l-4.328126 2.582032-14.488281-9.652344-13.351562 13.351562 9.648437 14.480469-2.578125 4.335937c-3.519531 5.902344-6.167969 12.292969-7.871093 19l-1.242188 4.878907-17.0625 3.421875v18.882812l17.054688 3.414063 1.242187 4.878906c1.710937 6.707031 4.351563 13.097656 7.871094 19l2.574219 4.335937-9.644532 14.480469 13.351563 13.351563 14.488281-9.65625 4.328125 2.585937c5.894531 3.511719 12.285156 6.160157 18.992187 7.863281l4.886719 1.242188 3.40625 17.0625h18.890625l3.40625-17.054688 4.886719-1.242187c6.707031-1.703125 13.097656-4.351563 18.992187-7.863281l4.328126-2.582032 14.488281 9.652344 13.351562-13.351562-9.648437-14.480469 2.578125-4.335937c3.519531-5.902344 6.167969-12.292969 7.871093-19l1.242188-4.878907 17.0625-3.421875zm-88 33.441406c-13.230469 0-24-10.769531-24-24s10.769531-24 24-24 24 10.769531 24 24-10.769531 24-24 24zm0-16c4.414062 0 8-3.59375 8-8s-3.585938-8-8-8-8 3.59375-8 8 3.585938 8 8 8zm-292-96h24c6.617188 0 12 5.382812 12 12h16c0-15.441406-12.558594-28-28-28h-4v-16h-16v16h-4c-15.441406 0-28 12.558594-28 28s12.558594 28 28 28h24c6.617188 0 12 5.382812 12 12s-5.382812 12-12 12h-24c-6.617188 0-12-5.382812-12-12h-16c0 15.441406 12.558594 28 28 28h4v16h16v-16h4c15.441406 0 28-12.558594 28-28s-12.558594-28-28-28h-24c-6.617188 0-12-5.382812-12-12s5.382812-12 12-12zm188 192h16v32h-80v16h96v-64h-32zm-96 0h80v-16h-96v64h32v-16h-16zm-160-208h16v-16h-16zm160-16h-16v16h16zm-160 128h16v-16h-16zm160-16h-16v16h16zm200 48c-22.054688 0-40-17.945312-40-40 0-8.320312 2.566406-16.320312 7.425781-23.144531l-13.035156-9.28125c-6.796875 9.546875-10.390625 20.761719-10.390625 32.425781 0 30.878906 25.128906 56 56 56 11.664062 0 22.871094-3.59375 32.425781-10.390625l-9.28125-13.035156c-6.824219 4.859375-14.824219 7.425781-23.144531 7.425781zm0-96c-11.664062 0-22.871094 3.59375-32.425781 10.390625l9.28125 13.035156c6.824219-4.859375 14.824219-7.425781 23.144531-7.425781 22.054688 0 40 17.945312 40 40 0 8.320312-2.566406 16.320312-7.425781 23.144531l13.035156 9.28125c6.796875-9.546875 10.390625-20.761719 10.390625-32.425781 0-30.878906-25.128906-56-56-56zm0 0" fill="url(#a)"/></svg>