<svg xmlns="http://www.w3.org/2000/svg" width="59" height="58" viewBox="0 0 59 58">
    <defs>
        <linearGradient id="a" x1="-4.615%" x2="104.817%" y1="-15.715%" y2="110.448%">
            <stop offset="0%" stop-color="#27E1F4"/>
            <stop offset="100%" stop-color="#D51571"/>
        </linearGradient>
    </defs>
    <path fill="url(#a)" fill-rule="nonzero" d="M30.455 27.161h-1.787l-.013 2.45v18.221l5.098 2.952 12.12-6.996v-5.325l-1.827-.875a2.13 2.13 0 0 1-1.939.051 2.136 2.136 0 0 1-1.002-2.844 2.134 2.134 0 0 1 2.844-1.002c1.059.505-1.06-.508 0 0 .637.305 1.054.89 1.175 1.538l1.943.93 6.49-3.746v-5.664h-1.536a2.134 2.134 0 0 1-1.913 1.192 2.134 2.134 0 0 1-2.13-2.13c0-1.178.956-2.132 2.13-2.132 1.178 0-1.174 0 0 0 .559 0 1.068.216 1.448.57h2.002v-5.83l-6.45-3.722-2.02 1.116a2.132 2.132 0 1 1-3.147-2.125c1.028-.566-1.03.57 0 0a2.13 2.13 0 0 1 1.937-.064l1.994-1.1V6.224L33.752-.771l-5.097 2.176V21.32l.023 3.34h1.779a2.13 2.13 0 0 1 1.723-.88c1.175 0-1.177 0 0 0 1.175 0 2.131.954 2.131 2.131a2.13 2.13 0 1 1-3.856 1.249zm6.98 13.37a2.13 2.13 0 1 1-1.098 3.635c-.849-.813.85.813 0 0a2.128 2.128 0 0 1-.635-1.83l-1.7-1.63V31.51l5.467-2.477v-6.214l-5.467-3.672v-8.88l1.532-1.182a2.132 2.132 0 0 1 .829-1.752c.93-.715-.931.718 0 0a2.137 2.137 0 0 1 2.99.387c.718.931.544 2.272-.387 2.99-.56.433-1.27.542-1.902.356l-.56.432v6.318l5.465 3.67v9.16l-5.465 2.477v6.516l.93.891zM24.349 24.66h1.782l.02-3.34v.008V1.445h1.252-1.251v.722L21.054-.771 8.934 6.225v6.4l1.86 1.027a2.132 2.132 0 0 1 2.908 2.892 2.14 2.14 0 0 1-2.898.833c-1.028-.57 1.028.567 0 0a2.13 2.13 0 0 1-1.057-1.446L7.697 14.8 1.25 18.52v6.14h1.725a2.13 2.13 0 1 1 1.724 3.382c-1.177 0 1.174 0 0 0a2.13 2.13 0 0 1-1.726-.882H1.25v5.354l6.49 3.747 1.942-.93a2.13 2.13 0 0 1 1.177-1.542 2.134 2.134 0 0 1 2.844 1.003 2.134 2.134 0 0 1-1.003 2.843c-1.059.508 1.062-.507 0 0a2.13 2.13 0 0 1-1.936-.049l-1.829.876v5.325l12.12 6.996 5.098-2.952V29.62l-.013-2.46h-1.787a2.13 2.13 0 0 1-1.726.883c-1.175 0 1.177 0 0 0a2.134 2.134 0 0 1-2.131-2.13 2.13 2.13 0 1 1 3.855-1.252zm-5.245 17.675c.09.653-.124 1.34-.635 1.83a2.13 2.13 0 1 1-2.949-3.077c.846-.814-.85.812 0 0a2.13 2.13 0 0 1 1.852-.559l.93-.891v-6.516l-5.465-2.477v-9.16l5.465-3.67v-6.319l-.559-.43a2.129 2.129 0 0 1-1.903-.356c-.93-.718.931.718 0 0a2.136 2.136 0 0 1-.387-2.99 2.132 2.132 0 1 1 3.82 1.364l1.532 1.181v8.88l-5.467 3.673v6.214l5.467 2.477v9.196l-1.7 1.63zm8.3 7.664l-6.35 3.674-14.62-8.442v-6.834l-7.686-4.439V17.078l7.686-4.437v-7.86l14.62-8.442L27.404 0l6.349-3.66 14.62 8.441v7.86l7.685 4.437v16.881l-7.685 4.44v6.833l-14.62 8.442L27.403 50zm0-48.555z" transform="translate(2 4)"/>
</svg>
