<svg
                xmlns="http://www.w3.org/2000/svg"
                width="500"
                height="414"
                viewBox="0 0 500 414"
                preserveAspectRatio="xMidYMid meet"
                style="width: 100%; height: 100%"
              >
                <defs>
                  <clipPath id="animationMask_typYJ3kVA7">
                    <rect width="500" height="414" x="0" y="0"></rect>
                  </clipPath>
                  <clipPath id="cp_gE351mbe">
                    <path d="M0,0 L85,0 L85,85 L0,85z"></path>
                  </clipPath>
                  <filter
                    id="nwEbSpICJk"
                    filterUnits="objectBoundingBox"
                    x="-100%"
                    y="-100%"
                    width="400%"
                    height="400%"
                  >
                    <feGaussianBlur
                      in="SourceAlpha"
                      result="drop_shadow_1"
                      stdDeviation="32.5"
                    ></feGaussianBlur>
                    <feOffset
                      dx="2.02421869431066e-15"
                      dy="33.058"
                      in="drop_shadow_1"
                      result="drop_shadow_2"
                    ></feOffset>
                    <feFlood
                      flood-color="#000000"
                      flood-opacity="0.15"
                      result="drop_shadow_3"
                    ></feFlood>
                    <feComposite
                      in="drop_shadow_3"
                      in2="drop_shadow_2"
                      operator="in"
                      result="drop_shadow_4"
                    ></feComposite>
                    <feMerge>
                      <feMergeNode></feMergeNode>
                      <feMergeNode in="SourceGraphic"></feMergeNode>
                    </feMerge>
                  </filter>
                  <linearGradient
                    id="gr_HQ1N3cceVi"
                    spreadMethod="pad"
                    gradientUnits="userSpaceOnUse"
                    x1="60.688"
                    y1="60.767"
                    x2="15.248"
                    y2="44.783"
                  >
                    <stop offset="0%" stop-color="rgb(255,48,147)"></stop>
                    <stop offset="50%" stop-color="rgb(142,141,201)"></stop>
                    <stop offset="100%" stop-color="rgb(29,234,255)"></stop>
                  </linearGradient>
                  <linearGradient
                    id="gr_GM2ZFdj5pi"
                    spreadMethod="pad"
                    gradientUnits="userSpaceOnUse"
                    x1="57.943"
                    y1="60.151"
                    x2="-4.428"
                    y2="-3.755"
                  >
                    <stop offset="0%" stop-color="rgb(213,21,113)"></stop>
                    <stop offset="50%" stop-color="rgb(126,123,179)"></stop>
                    <stop offset="100%" stop-color="rgb(39,225,244)"></stop>
                  </linearGradient>
                  <filter
                    id="KbVGC5qAbu"
                    filterUnits="objectBoundingBox"
                    x="-100%"
                    y="-100%"
                    width="400%"
                    height="400%"
                  >
                    <feGaussianBlur
                      in="SourceAlpha"
                      result="drop_shadow_1"
                      stdDeviation="17.75"
                    ></feGaussianBlur>
                    <feOffset
                      dx="2.4492935982947065e-15"
                      dy="40"
                      in="drop_shadow_1"
                      result="drop_shadow_2"
                    ></feOffset>
                    <feFlood
                      flood-color="#000000"
                      flood-opacity="0.15"
                      result="drop_shadow_3"
                    ></feFlood>
                    <feComposite
                      in="drop_shadow_3"
                      in2="drop_shadow_2"
                      operator="in"
                      result="drop_shadow_4"
                    ></feComposite>
                    <feMerge>
                      <feMergeNode></feMergeNode>
                      <feMergeNode in="SourceGraphic"></feMergeNode>
                    </feMerge>
                  </filter>
                  <linearGradient
                    id="gr_zA3mqx7fTA"
                    spreadMethod="pad"
                    gradientUnits="userSpaceOnUse"
                    x1="53.963"
                    y1="54.384"
                    x2="-8.928"
                    y2="-7.151"
                  >
                    <stop offset="0%" stop-color="rgb(255,48,147)"></stop>
                    <stop offset="50%" stop-color="rgb(142,141,201)"></stop>
                    <stop offset="100%" stop-color="rgb(29,234,255)"></stop>
                  </linearGradient>
                  <filter
                    id="LO9DMUFOVH"
                    filterUnits="objectBoundingBox"
                    x="-100%"
                    y="-100%"
                    width="400%"
                    height="400%"
                  >
                    <feGaussianBlur
                      in="SourceAlpha"
                      result="drop_shadow_1"
                      stdDeviation="17.75"
                    ></feGaussianBlur>
                    <feOffset
                      dx="2.4492935982947065e-15"
                      dy="40"
                      in="drop_shadow_1"
                      result="drop_shadow_2"
                    ></feOffset>
                    <feFlood
                      flood-color="#000000"
                      flood-opacity="0.15"
                      result="drop_shadow_3"
                    ></feFlood>
                    <feComposite
                      in="drop_shadow_3"
                      in2="drop_shadow_2"
                      operator="in"
                      result="drop_shadow_4"
                    ></feComposite>
                    <feMerge>
                      <feMergeNode></feMergeNode>
                      <feMergeNode in="SourceGraphic"></feMergeNode>
                    </feMerge>
                  </filter>
                  <clipPath id="cp_LX9nauxt">
                    <path d="M0,0 L160,0 L160,182 L0,182z"></path>
                  </clipPath>
                  <linearGradient
                    id="gr_EMzF8VJ6ny"
                    spreadMethod="pad"
                    gradientUnits="userSpaceOnUse"
                    x1="58.688"
                    y1="56.668"
                    x2="-3.395"
                    y2="-4.117"
                  >
                    <stop offset="0%" stop-color="rgb(255,48,147)"></stop>
                    <stop offset="50%" stop-color="rgb(142,141,201)"></stop>
                    <stop offset="100%" stop-color="rgb(29,234,255)"></stop>
                  </linearGradient>
                  <clipPath id="1vtHmNe34d">
                    <path
                      fill="#ffffff"
                      clip-rule="nonzero"
                      d=" M8.178,-1.515 C3,3 3,-2 -5,4 C-14,10 -7,49 -7,49 C-7,49 25,64 25,64 C25,64 58,46 58,46 C58,46 61,17 56,8 C50,-2 44,0 40,0 C35,0 14,-6 8,-2"
                      fill-opacity="1"
                    ></path>
                  </clipPath>
                  <clipPath id="BLAvoIwZv9">
                    <path
                      fill="#ffffff"
                      clip-rule="nonzero"
                      d=" M8.178,-1.515 C3,3 3,-2 -5,4 C-14,10 -7,49 -7,49 C-7,49 25,64 25,64 C25,64 58,46 58,46 C58,46 61,17 56,8 C50,-2 44,0 40,0 C35,0 14,-6 8,-2"
                      fill-opacity="1"
                    ></path>
                  </clipPath>
                  <linearGradient
                    id="gr_JHbyUkeH1w"
                    spreadMethod="pad"
                    gradientUnits="userSpaceOnUse"
                    x1="133.357"
                    y1="150.188"
                    x2="-3.949"
                    y2="-3.133"
                  >
                    <stop offset="0%" stop-color="rgb(213,21,113)"></stop>
                    <stop offset="50%" stop-color="rgb(126,123,179)"></stop>
                    <stop offset="100%" stop-color="rgb(39,225,244)"></stop>
                  </linearGradient>
                </defs>
                <g clip-path="url(#animationMask_typYJ3kVA7)">
                  <g transform="matrix(1,0,0,1,0,0)" opacity="1">
                    <rect width="500" height="414" fill="#ffffff"></rect>
                  </g>
                  <g
                    filter="url(#nwEbSpICJk)"
                    style="user-select: none"
                    transform="matrix(1,0,0,1,119.616,101.215)"
                    opacity="1"
                  >
                    <g opacity="1" transform="matrix(0.82645,0,0,0.82645,0,0)">
                      <path
                        fill="rgb(255,255,255)"
                        fill-opacity="1"
                        d="M0 0 M315.53,17 C315.53,17 315.53,239 315.53,239 C315.53,248.3823 307.91229999999996,256 298.53,256 C298.53,256 17,256 17,256 C7.617700000000001,256 0,248.3823 0,239 C0,239 0,17 0,17 C0,7.617700000000001 7.617700000000001,0 17,0 C17,0 298.53,0 298.53,0 C307.91229999999996,0 315.53,7.617700000000001 315.53,17z"
                      ></path>
                      <path
                        stroke-linecap="butt"
                        stroke-linejoin="miter"
                        fill-opacity="0"
                        stroke-miterlimit="4"
                        stroke="rgb(255,255,255)"
                        stroke-opacity="1"
                        stroke-width="3"
                        d="M0 0 M315.53,17 C315.53,17 315.53,239 315.53,239 C315.53,248.3823 307.91229999999996,256 298.53,256 C298.53,256 17,256 17,256 C7.617700000000001,256 0,248.3823 0,239 C0,239 0,17 0,17 C0,7.617700000000001 7.617700000000001,0 17,0 C17,0 298.53,0 298.53,0 C307.91229999999996,0 315.53,7.617700000000001 315.53,17z"
                      ></path>
                    </g>
                  </g>
                  <g
                    clip-path="url(#cp_LX9nauxt)"
                    transform="matrix(0.82645,0,0,0.82645,184.079,131.79305)"
                    opacity="1"
                  >
                    <g
                      style="user-select: none"
                      transform="matrix(1,0,0,1,14,16)"
                      opacity="1"
                    >
                      <g opacity="1" transform="matrix(1,0,0,1,0,0)">
                        <path
                          stroke-linecap="round"
                          stroke-linejoin="round"
                          fill-opacity="0"
                          stroke="url(#gr_JHbyUkeH1w)"
                          stroke-opacity="1"
                          stroke-width="3"
                          d="M0 0 M102.5,112.5 C102.5,112.5 79.5,125.5 79.5,125.5M0 0 M50.5,24.5 C50.5,24.5 27.5,37.5 27.5,37.5M0 0 M1,55 C1,55 2,55 2,55 C2,55 12,61 12,61 C12,61 13,62 13,62 C13,62 14,62 15,62 C15,62 16,62 16,62 C16,62 17,61 17,61 C17,61 27,55 27,55 C27,55 28,55 28,55 C28,54 29,53 29,52 C29,52 29,39 29,39 C29,38 28,37 28,36 C28,36 27,36 27,36 C27,36 17,30 17,30 C17,30 16,29 16,29 C16,29 15,29 15,29 C14,29 13,29 13,29 C13,29 12,30 12,30 C12,30 2,36 2,36 C2,36 1,36 1,36 C1,37 0,38 0,39 C0,39 0,52 0,52 C0,53 1,54 1,55zM0 0 M52,26 C52,26 53,26 53,26 C53,26 63,32 63,32 C63,32 64,33 64,33 C64,33 65,33 65,33 C66,33 66,33 67,33 C67,33 68,32 68,32 C68,32 78,26 78,26 C78,26 79,26 79,26 C79,25 80,24 80,23 C80,23 80,10 80,10 C80,9 79,8 79,7 C79,7 78,7 78,7 C78,7 68,1 68,1 C68,1 67,0 67,0 C66,0 66,0 65,0 C65,0 64,0 64,0 C64,0 63,1 63,1 C63,1 53,7 53,7 C53,7 53,7 53,7 C52,8 51,9 51,10 C51,10 51,23 51,23 C51,24 51,25 52,26 C52,26 52,26 52,26zM0 0 M28,95 C28,95 27,95 27,95 C27,95 17,89 17,89 C17,89 16,88 16,88 C16,88 15,88 15,88 C14,88 14,88 13,88 C13,88 12,89 12,89 C12,89 2,95 2,95 C2,95 2,95 2,95 C1,96 0,97 0,98 C0,98 0,111 0,111 C0,112 1,113 2,114 C2,114 2,114 2,114 C2,114 12,120 12,120 C12,120 13,121 13,121 C14,121 14,121 15,121 C15,121 16,121 16,121 C16,121 17,120 17,120 C17,120 27,114 27,114 C27,114 27,114 27,114 C28,113 29,112 29,111 C29,111 29,98 29,98 C29,97 29,96 28,95 C28,95 28,95 28,95zM0 0 M131,95 C131,95 130,95 130,95 C130,95 120,89 120,89 C120,89 119,88 119,88 C119,88 118,88 118,88 C117,88 117,88 116,88 C116,88 115,89 115,89 C115,89 105,95 105,95 C105,95 104,95 104,95 C104,96 103,97 103,98 C103,98 103,111 103,111 C103,112 104,113 104,114 C104,114 105,114 105,114 C105,114 115,120 115,120 C115,120 116,121 116,121 C116,121 117,121 118,121 C118,121 119,121 119,121 C119,121 120,120 120,120 C120,120 130,114 130,114 C130,114 131,114 131,114 C131,113 132,112 132,111 C132,111 132,98 132,98 C132,97 131,96 131,95 C131,95 131,95 131,95zM0 0 M109,4 C109,4 109,3 109,3 C109,3 104,1 104,1 C104,1 104,0 104,0 C104,0 103,0 103,0 C103,0 102,0 102,0 C102,0 102,0 102,0 C102,0 97,3 97,3 C97,3 97,3 97,3 C96,4 96,4 96,5 C96,5 96,11 96,11 C96,12 96,12 97,13 C97,13 97,13 97,13 C97,13 102,16 102,16 C102,16 102,16 102,16 C102,16 103,16 103,16 C103,16 104,16 104,16 C104,16 104,16 104,16 C104,16 109,13 109,13 C109,13 109,13 109,13 C110,12 110,12 110,11 C110,11 110,5 110,5 C110,4 110,4 109,4 C109,4 109,4 109,4zM0 0 M50,105 C50,105 50,104 50,104 C50,104 45,102 45,102 C45,102 45,101 45,101 C45,101 44,101 44,101 C44,101 43,101 43,101 C43,101 43,101 43,101 C43,101 38,104 38,104 C38,104 38,104 38,104 C37,105 37,105 37,106 C37,106 37,112 37,112 C37,113 37,113 38,114 C38,114 38,114 38,114 C38,114 43,117 43,117 C43,117 43,117 43,117 C43,117 44,117 44,117 C44,117 45,117 45,117 C45,117 45,117 45,117 C45,117 50,114 50,114 C50,114 50,114 50,114 C51,113 51,113 51,112 C51,112 51,106 51,106 C51,105 51,105 50,105 C50,105 50,105 50,105zM0 0 M78,124 C78,124 78,124 78,124 C78,124 68,118 68,118 C68,118 67,117 67,117 C67,117 66,117 65,117 C65,117 64,117 64,117 C64,117 63,118 63,118 C63,118 53,124 53,124 C53,124 52,124 52,124 C52,125 51,126 51,127 C51,127 51,140 51,140 C51,141 52,142 52,143 C52,143 53,143 53,143 C53,143 63,149 63,149 C63,149 64,150 64,150 C64,150 65,150 65,150 C66,150 67,150 67,150 C67,150 68,149 68,149 C68,149 78,143 78,143 C78,143 78,143 78,143 C79,142 80,141 80,140 C80,140 80,127 80,127 C80,126 80,125 78,124 C78,124 78,124 78,124zM0 0 M131,36 C131,36 130,36 130,36 C130,36 120,30 120,30 C120,30 119,29 119,29 C119,29 118,29 118,29 C117,29 116,29 116,29 C116,29 115,30 115,30 C115,30 105,36 105,36 C105,36 104,36 104,36 C104,37 103,38 103,39 C103,39 103,52 103,52 C103,53 104,54 104,55 C104,55 105,55 105,55 C105,55 115,61 115,61 C115,61 116,62 116,62 C116,62 117,62 118,62 C118,62 119,62 119,62 C119,62 120,61 120,61 C120,61 130,55 130,55 C130,55 131,55 131,55 C131,54 132,53 132,52 C132,52 132,39 132,39 C132,38 131,37 131,36z"
                        ></path>
                        <g opacity="1" transform="matrix(1,0,0,1,0,0)">
                          <g opacity="1" transform="matrix(1,0,0,1,0,0)"></g>
                          <g opacity="1" transform="matrix(1,0,0,1,0,0)"></g>
                        </g>
                        <g opacity="1" transform="matrix(1,0,0,1,0,0)">
                          <g opacity="1" transform="matrix(1,0,0,1,0,29)"></g>
                          <g opacity="1" transform="matrix(1,0,0,1,51,0)"></g>
                          <g opacity="1" transform="matrix(1,0,0,1,0,88)"></g>
                          <g opacity="1" transform="matrix(1,0,0,1,103,88)"></g>
                          <g opacity="1" transform="matrix(1,0,0,1,96,0)"></g>
                          <g opacity="1" transform="matrix(1,0,0,1,37,101)"></g>
                          <g opacity="1" transform="matrix(1,0,0,1,51,117)"></g>
                          <g opacity="1" transform="matrix(1,0,0,1,103,29)"></g>
                        </g>
                      </g>
                    </g>
                    <g
                      style="user-select: none"
                      clip-path="url(#BLAvoIwZv9)"
                      transform="matrix(1,0,0,1,55,62)"
                      opacity="1"
                    >
                      <g opacity="1" transform="matrix(1,0,0,1,0,0)">
                        <path
                          fill="rgb(232,235,239)"
                          fill-opacity="1"
                          d="M0 0 M48.73,13.32 C48.73,13.32 47.83,12.87 47.83,12.87 C47.83,12.87 27.5,1.05 27.5,1.05 C27.5,1.05 26.6,0.45 26.6,0.45 C26.150000000000002,0.15000000000000002 25.56,0 25.11,0 C24.509999999999998,0 24.060000000000002,0.15000000000000002 23.62,0.45 C23.62,0.45 22.72,1.04 22.72,1.04 C22.72,1.04 2.39,12.71 2.39,12.71 C2.39,12.71 1.49,13.16 1.49,13.16 C0.6,13.76 0,14.66 0,15.86 C0,15.86 0,41.29 0,41.29 C0,42.339999999999996 0.6,43.38999999999999 1.49,43.98 C1.49,43.98 2.39,44.43 2.39,44.43 C2.39,44.43 22.57,56.1 22.57,56.1 C22.57,56.1 23.47,56.55 23.47,56.55 C23.919999999999998,56.849999999999994 24.51,57 24.96,57 C25.41,57 26,56.849999999999994 26.45,56.55 C26.45,56.55 27.35,56.1 27.35,56.1 C27.35,56.1 47.53,44.43 47.53,44.43 C47.53,44.43 48.43,43.84 48.43,43.84 C49.33,43.24 49.92,42.34 49.92,41.14 C49.92,41.14 49.92,15.71 49.92,15.71 C50.22,14.81 49.629999999999995,13.77 48.73,13.32 C48.73,13.32 48.73,13.32 48.73,13.32z"
                        ></path>
                      </g>
                    </g>
                    <g
                      style="user-select: none; display: block"
                      clip-path="url(#1vtHmNe34d)"
                      transform="matrix(1,0,0,1,55,62)"
                      opacity="1"
                    >
                      <g opacity="1" transform="matrix(1,0,0,1,0,0)">
                        <path
                          fill="url(#gr_EMzF8VJ6ny)"
                          style="display: block"
                          fill-opacity="1"
                          d="M0 0 M48.73,13.32 C48.73,13.32 47.83,12.87 47.83,12.87 C47.83,12.87 27.5,1.05 27.5,1.05 C27.5,1.05 26.6,0.45 26.6,0.45 C26.150000000000002,0.15000000000000002 25.56,0 25.11,0 C24.509999999999998,0 24.060000000000002,0.15000000000000002 23.62,0.45 C23.62,0.45 22.72,1.04 22.72,1.04 C22.72,1.04 2.39,12.71 2.39,12.71 C2.39,12.71 1.49,13.16 1.49,13.16 C0.6,13.76 0,14.66 0,15.86 C0,15.86 0,41.29 0,41.29 C0,42.339999999999996 0.6,43.38999999999999 1.49,43.98 C1.49,43.98 2.39,44.43 2.39,44.43 C2.39,44.43 22.57,56.1 22.57,56.1 C22.57,56.1 23.47,56.55 23.47,56.55 C23.919999999999998,56.849999999999994 24.51,57 24.96,57 C25.41,57 26,56.849999999999994 26.45,56.55 C26.45,56.55 27.35,56.1 27.35,56.1 C27.35,56.1 47.53,44.43 47.53,44.43 C47.53,44.43 48.43,43.84 48.43,43.84 C49.33,43.24 49.92,42.34 49.92,41.14 C49.92,41.14 49.92,15.71 49.92,15.71 C50.22,14.81 49.629999999999995,13.77 48.73,13.32 C48.73,13.32 48.73,13.32 48.73,13.32z"
                        ></path>
                      </g>
                    </g>
                  </g>
                  <g
                    filter="url(#LO9DMUFOVH)"
                    style="user-select: none; display: block"
                    transform="matrix(0.85,0,0,0.85,83.833,193.728)"
                    opacity="1"
                  >
                    <g opacity="1" transform="matrix(1,0,0,1,0,0)">
                      <path
                        style="display: block"
                        fill="rgb(255,255,255)"
                        fill-opacity="0.85"
                        d="M0 0 M85,17 C85,17 85,68 85,68 C85,77.3823 77.3823,85 68,85 C68,85 17,85 17,85 C7.617700000000001,85 0,77.3823 0,68 C0,68 0,17 0,17 C0,7.617700000000001 7.617700000000001,0 17,0 C17,0 68,0 68,0 C77.3823,0 85,7.617700000000001 85,17z"
                      ></path>
                      <path
                        stroke-linecap="butt"
                        stroke-linejoin="miter"
                        fill-opacity="0"
                        stroke-miterlimit="4"
                        style="display: block"
                        stroke="rgb(255,255,255)"
                        stroke-opacity="1"
                        stroke-width="3"
                        d="M0 0 M85,17 C85,17 85,68 85,68 C85,77.3823 77.3823,85 68,85 C68,85 17,85 17,85 C7.617700000000001,85 0,77.3823 0,68 C0,68 0,17 0,17 C0,7.617700000000001 7.617700000000001,0 17,0 C17,0 68,0 68,0 C77.3823,0 85,7.617700000000001 85,17z"
                      ></path>
                    </g>
                  </g>
                  <g
                    style="user-select: none; display: block"
                    transform="matrix(6.123233995736766e-17,1,-1,6.123233995736766e-17,138.553,211.257)"
                    opacity="1"
                  >
                    <g opacity="1" transform="matrix(0.82645,0,0,0.82645,0,0)">
                      <path
                        fill="url(#gr_zA3mqx7fTA)"
                        style="display: block"
                        fill-opacity="1"
                        d="M0 0 M23,28 C20,28 18,27 17,25 C17,23 17,20 19,19 C20,17 23,17 25,17 C27,18 28,20 28,22 C28,25 25,28 23,28 C23,28 23,28 23,28zM0 0 M23,14 C19,14 16,16 15,19 C14,22 14,26 17,28 C19,31 23,31 26,30 C29,29 31,26 31,22 C31,18 27,14 23,14 C23,14 23,14 23,14zM0 0 M43,26 C43,26 42,29 42,29 C42,30 41,30 41,30 C41,30 37,30 37,30 C36,30 35,30 35,31 C34,32 32,34 31,35 C30,35 30,36 30,37 C30,37 30,41 30,41 C30,41 30,42 29,42 C29,42 26,43 26,43 C26,43 26,43 26,43 C26,43 25,42 25,42 C25,42 23,39 23,39 C23,38 22,38 22,37 C20,37 18,37 16,36 C15,36 14,36 14,36 C14,36 11,38 11,38 C10,39 10,38 9,38 C9,38 7,36 7,36 C7,35 7,35 7,34 C7,34 9,31 9,31 C9,31 9,30 9,29 C8,27 8,25 7,23 C7,23 7,22 6,22 C6,22 3,20 3,20 C3,20 2,19 2,19 C2,19 3,16 3,16 C3,15 4,15 4,15 C4,15 8,15 8,15 C8,15 8,15 8,15 C9,15 10,15 10,14 C11,13 13,11 14,10 C15,10 15,9 15,8 C15,8 15,4 15,4 C15,4 15,4 15,4 C15,4 15,3 16,3 C16,3 19,2 19,2 C19,2 20,3 20,3 C20,3 22,6 22,6 C22,6 22,6 22,6 C22,7 23,7 23,8 C25,8 27,8 29,9 C30,9 31,9 31,9 C31,9 34,7 34,7 C35,6 35,7 36,7 C36,7 38,9 38,9 C38,10 39,10 38,11 C38,11 36,14 36,14 C36,14 36,15 36,16 C37,18 37,20 38,22 C38,22 38,23 39,23 C39,23 42,25 42,25 C42,25 43,26 43,26 C43,26 43,26 43,26zM0 0 M42.24,21.29 C42.24,21.29 40.11,20.3 40.11,20.3 C39.91,18.68 39.49,17.09 38.85,15.59 C38.85,15.59 40.2,13.67 40.2,13.67 C41.53,11.78 41.300000000000004,9.2 39.67,7.57 C39.67,7.57 37.39,5.29 37.39,5.29 C35.76,3.66 33.19,3.4399999999999995 31.29,4.76 C31.29,4.76 29.4,6.14 29.4,6.14 C27.889999999999997,5.5 26.31,5.08 24.68,4.88 C24.68,4.88 23.7,2.75 23.7,2.75 C23.7,2.75 23.7,2.76 23.7,2.76 C22.72,0.6599999999999997 20.380000000000003,-0.43999999999999995 18.14,0.16 C18.14,0.16 15.11,0.98 15.11,0.98 C12.85,1.5699999999999998 11.35,3.71 11.57,6.04 C11.57,6.04 11.77,8.31 11.77,8.31 C10.48,9.3 9.31,10.459999999999999 8.33,11.76 C8.33,11.76 6,11.56 6,11.56 C3.7,11.35 1.58,12.83 0.98,15.06 C0.98,15.06 0.17,18.1 0.17,18.1 C0.17,18.1 0.16,18.1 0.16,18.1 C-0.43999999999999995,20.330000000000002 0.6599999999999997,22.68 2.76,23.65 C2.76,23.65 4.88,24.64 4.88,24.64 C5.08,26.26 5.5,27.84 6.14,29.35 C6.14,29.35 4.8,31.27 4.8,31.27 C4.8,31.27 4.8,31.27 4.8,31.27 C3.4699999999999998,33.16 3.6900000000000004,35.73 5.33,37.37 C5.33,37.37 7.6,39.64 7.6,39.64 C9.23,41.28 11.809999999999999,41.5 13.7,40.17 C13.7,40.17 15.62,38.83 15.62,38.83 C15.62,38.83 15.62,38.83 15.62,38.83 C17.11,39.48 18.68,39.92 20.29,40.14 C20.29,40.14 21.27,42.27 21.27,42.27 C22.259999999999998,44.35 24.59,45.440000000000005 26.82,44.84 C26.82,44.84 29.85,44.02 29.85,44.02 C29.85,44.02 29.85,44.02 29.85,44.02 C32.09,43.42 33.57,41.3 33.37,39 C33.37,39 33.16,36.67 33.16,36.67 C33.16,36.67 33.16,36.67 33.16,36.67 C33.809999999999995,36.18 34.43,35.64 35.01,35.07 C35.6,34.49 36.160000000000004,33.86 36.67,33.21 C36.67,33.21 39,33.41 39,33.41 C41.3,33.62 43.42,32.14 44.02,29.9 C44.02,29.9 44.83,26.87 44.83,26.87 C45.449999999999996,24.62 44.35,22.259999999999998 42.24,21.29 C42.24,21.29 42.24,21.29 42.24,21.29z"
                      ></path>
                      <g
                        opacity="1"
                        transform="matrix(1,0,0,1,17.03,17.05)"
                      ></g>
                      <g
                        opacity="1"
                        transform="matrix(1,0,0,1,14.38,14.37)"
                      ></g>
                      <g opacity="1" transform="matrix(1,0,0,1,2.37,2.38)"></g>
                      <g opacity="1" transform="matrix(1,0,0,1,0,0)"></g>
                    </g>
                  </g>
                  <g
                    filter="url(#KbVGC5qAbu)"
                    style="user-select: none; display: block"
                    transform="matrix(0.85,0,0,0.85,344.637,135.651)"
                    opacity="1"
                  >
                    <g opacity="1" transform="matrix(1,0,0,1,0,0)">
                      <path
                        style="display: block"
                        fill="rgb(255,255,255)"
                        fill-opacity="0.85"
                        d="M0 0 M85,17 C85,17 85,68 85,68 C85,77.3823 77.3823,85 68,85 C68,85 17,85 17,85 C7.617700000000001,85 0,77.3823 0,68 C0,68 0,17 0,17 C0,7.617700000000001 7.617700000000001,0 17,0 C17,0 68,0 68,0 C77.3823,0 85,7.617700000000001 85,17z"
                      ></path>
                      <path
                        stroke-linecap="butt"
                        stroke-linejoin="miter"
                        fill-opacity="0"
                        stroke-miterlimit="4"
                        style="display: block"
                        stroke="rgb(255,255,255)"
                        stroke-opacity="1"
                        stroke-width="3"
                        d="M0 0 M85,17 C85,17 85,68 85,68 C85,77.3823 77.3823,85 68,85 C68,85 17,85 17,85 C7.617700000000001,85 0,77.3823 0,68 C0,68 0,17 0,17 C0,7.617700000000001 7.617700000000001,0 17,0 C17,0 68,0 68,0 C77.3823,0 85,7.617700000000001 85,17z"
                      ></path>
                    </g>
                  </g>
                  <g
                    clip-path="url(#cp_gE351mbe)"
                    style="display: block"
                    transform="matrix(0.82645,0,0,0.82645,345.236,136.752)"
                    opacity="1"
                  >
                    <g
                      style="user-select: none; display: block"
                      transform="matrix(1,0,0,1,16,14)"
                      opacity="1"
                    >
                      <g opacity="1" transform="matrix(1,0,0,1,0,0)">
                        <path
                          fill="url(#gr_HQ1N3cceVi)"
                          style="display: block"
                          fill-opacity="1"
                          d="M0 0 M39,43 C39,43 39,43 39,43 C39,43 27,43 27,43 C27,43 27,43 27,43 C27,43 39,43 39,43zM0 0 M27,43 C27,43 27,43 27,43 C27,43 15,43 15,43 C15,43 15,43 15,43 C15,43 27,43 27,43z"
                        ></path>
                      </g>
                      <g opacity="1" transform="matrix(1,0,0,1,0,0)">
                        <path
                          stroke-linecap="butt"
                          stroke-linejoin="miter"
                          fill-opacity="0"
                          stroke-miterlimit="4"
                          stroke="url(#gr_GM2ZFdj5pi)"
                          style="display: block"
                          stroke-opacity="1"
                          stroke-width="3"
                          d="M0 0 M28,10 C30,10 32,7 32,5 C32,2 30,0 27,0 C27,0 27,0 27,0 C24,0 22,2 22,5 C22,8 24,10 27,10 C27,10 28,10 28,10M0 0 M27,9 C27,9 27,19 27,19M0 0 M34,26 C31.8,26 30,27.8 30,30 C30,32.2 31.8,34 34,34 C36.2,34 38,32.2 38,30 C38,27.8 36.2,26 34,26zM0 0 M20,26 C17.8,26 16,27.8 16,30 C16,32.2 17.8,34 20,34 C22.2,34 24,32.2 24,30 C24,27.8 22.2,26 20,26zM0 0 M8,31 C8,31 8,42 8,42 C8,42 0,42 0,42 C0,42 0,31 0,31 C0,31 8,31 8,31zM0 0 M54,31 C54,31 54,42 54,42 C54,42 46,42 46,42 C46,42 46,31 46,31 C46,31 54,31 54,31zM0 0 M39,43 C39,43 39,55 39,55 C39,55 27,55 27,55 C27,55 27,43 27,43 C27,43 39,43 39,43zM0 0 M27,43 C27,43 27,55 27,55 C27,55 15,55 15,55 C15,55 15,43 15,43 C15,43 27,43 27,43zM0 0 M8,18 C8,18 27.19,18 27.19,18 C27.19,18 46,18 46,18 C46,18 46,55.05 46,55.05 C46,55.05 8,55.05 8,55.05 C8,55.05 8,18 8,18z"
                        ></path>
                        <g opacity="1" transform="matrix(1,0,0,1,22,0)"></g>
                        <g opacity="1" transform="matrix(1,0,0,1,26,8)"></g>
                        <g opacity="1" transform="matrix(1,0,0,1,0,0)"></g>
                        <g opacity="1" transform="matrix(1,0,0,1,0,0)"></g>
                        <g opacity="1" transform="matrix(1,0,0,1,0,0)"></g>
                        <g opacity="1" transform="matrix(1,0,0,1,0,0)"></g>
                      </g>
                    </g>
                  </g>
                </g>
              </svg>