<svg xmlns="http://www.w3.org/2000/svg" width="1200" height="1200" viewBox="0 0 1200 1200"
                        preserveAspectRatio="xMidYMid meet" style="width: 100%; height: 100%">
                        <defs>
                          <clipPath id="animationMask_0jA1nFq4JN">
                            <rect width="1200" height="1200" x="0" y="0"></rect>
                          </clipPath>
                          <clipPath id="cp_QglMUP4c">
                            <path d="M0,0 L1200,0 L1200,1200 L0,1200z"></path>
                          </clipPath>
                          <clipPath id="cp_97jtO8GF">
                            <path d="M0,0 L1200,0 L1200,1200 L0,1200z"></path>
                          </clipPath>
                          <clipPath id="cp_9tX8EIo5">
                            <path d="M0,0 L1200,0 L1200,1200 L0,1200z"></path>
                          </clipPath>
                          <clipPath id="cp_XiGjDyi8">
                            <path d="M0,0 L1200,0 L1200,1200 L0,1200z"></path>
                          </clipPath>
                          <clipPath id="cp_RrEfVFQB">
                            <path d="M0,0 L1200,0 L1200,1200 L0,1200z"></path>
                          </clipPath>
                          <clipPath id="cp_4MSTfaqU">
                            <path d="M0,0 L1200,0 L1200,1200 L0,1200z"></path>
                          </clipPath>
                        </defs>
                        <g clip-path="url(#animationMask_0jA1nFq4JN)">
                          <g transform="matrix(1,0,0,1,0,0)" opacity="1">
                            <rect width="1200" height="1200" fill="#1a1f24"></rect>
                          </g>
                          <g clip-path="url(#cp_QglMUP4c)" transform="matrix(2.1,0,0,2.1,-730.463,-407.85799999999995)"
                            opacity="1">
                            <g style="user-select: none" transform="matrix(1,0,0,0.86,0,33.18000000000001)" opacity="1">
                              <path stroke-linecap="butt" stroke-linejoin="miter" fill-opacity="0" stroke-miterlimit="10"
                                stroke="rgb(97,104,110)" stroke-opacity="1" stroke-width="1"
                                d="M0 0 M431.289,237 C431.289,237 431.289,809 431.289,809"></path>
                            </g>
                            <g style="user-select: none" transform="matrix(1,0,0,0.86,0,33.18000000000001)" opacity="1">
                              <path stroke-linecap="butt" stroke-linejoin="miter" fill-opacity="0" stroke-miterlimit="10"
                                stroke="rgb(97,104,110)" stroke-opacity="1" stroke-width="1"
                                d="M0 0 M599.24,237 C599.24,237 599.24,809 599.24,809"></path>
                            </g>
                            <g style="user-select: none" transform="matrix(1,0,0,0.86,0,33.18000000000001)" opacity="1">
                              <path stroke-linecap="butt" stroke-linejoin="miter" fill-opacity="0" stroke-miterlimit="10"
                                stroke="rgb(97,104,110)" stroke-opacity="1" stroke-width="1"
                                d="M0 0 M767.191,237 C767.191,237 767.191,809 767.191,809"></path>
                            </g>
                            <g style="user-select: none" transform="matrix(0.89,0,0,1,100.42999999999995,0)" opacity="1">
                              <path stroke-linecap="butt" stroke-linejoin="miter" fill-opacity="0" stroke-miterlimit="10"
                                stroke="rgb(97,104,110)" stroke-opacity="1" stroke-width="1"
                                d="M0 0 M913,317.5 C913,317.5 293,317.5 293,317.5"></path>
                            </g>
                            <g style="user-select: none" transform="matrix(0.89,0,0,1,100.42999999999995,-50)"
                              opacity="1">
                              <path stroke-linecap="butt" stroke-linejoin="miter" fill-opacity="0" stroke-miterlimit="10"
                                stroke="rgb(97,104,110)" stroke-opacity="1" stroke-width="1"
                                d="M0 0 M913,573.5 C913,573.5 293,573.5 293,573.5"></path>
                            </g>
                            <g style="user-select: none" transform="matrix(1,0,0,0.86,0,33.18000000000001)" opacity="0.5">
                              <g opacity="1" transform="matrix(1,0,0,1,0,0)">
                                <path stroke-linecap="butt" stroke-linejoin="miter" fill-opacity="0"
                                  stroke-miterlimit="10" stroke="rgb(215,236,255)" stroke-opacity="1" stroke-width="0.5"
                                  d="M0 0 M683.634,237 C683.634,237 683.634,239.073 683.634,239.073"></path>
                              </g>
                              <g opacity="1" transform="matrix(1,0,0,1,0,0)">
                                <path stroke-linecap="butt" stroke-linejoin="miter" fill-opacity="0"
                                  stroke-miterlimit="10" stroke-dasharray=" 4.145 4.145" stroke-dashoffset="0"
                                  stroke="rgb(215,236,255)" stroke-opacity="1" stroke-width="0.5"
                                  d="M0 0 M683.634,243.218 C683.634,243.218 683.634,804.854 683.634,804.854"></path>
                              </g>
                              <g opacity="1" transform="matrix(1,0,0,1,0,0)">
                                <path stroke-linecap="butt" stroke-linejoin="miter" fill-opacity="0"
                                  stroke-miterlimit="10" stroke="rgb(215,236,255)" stroke-opacity="1" stroke-width="0.5"
                                  d="M0 0 M683.634,806.927 C683.634,806.927 683.634,809 683.634,809"></path>
                              </g>
                            </g>
                            <g clip-path="url(#cp_XiGjDyi8)" style="display: block" transform="matrix(1,0,0,1,0,0.75)"
                              opacity="1">
                              <g clip-path="url(#cp_4MSTfaqU)" style="display: block" transform="matrix(1,0,0,1,0,0)"
                                opacity="1">
                                <g style="user-select: none; display: block" transform="matrix(1,0,0,1,0,-50)"
                                  opacity="1">
                                  <path style="display: block" fill="rgb(47,55,63)" fill-opacity="1"
                                    d="M0 0 M810.588,757 C810.588,757 747.191,757 747.191,757 C744.162,757 741.706,754.545 741.706,751.516 C741.706,751.516 741.706,736.984 741.706,736.984 C741.706,733.955 744.162,731.5 747.191,731.5 C747.191,731.5 810.588,731.5 810.588,731.5 C813.617,731.5 816.073,733.955 816.073,736.984 C816.073,736.984 816.073,751.516 816.073,751.516 C816.073,754.545 813.617,757 810.588,757z">
                                  </path>
                                </g>
                                <g style="user-select: none; display: block" transform="matrix(1,0,0,1,0,-50)"
                                  opacity="1">
                                  <path style="display: block" fill="rgb(47,55,63)" fill-opacity="1"
                                    d="M0 0 M626.761,757 C626.761,757 616.005,757 616.005,757 C612.976,757 610.521,754.545 610.521,751.516 C610.521,751.516 610.521,736.984 610.521,736.984 C610.521,733.955 612.976,731.5 616.005,731.5 C616.005,731.5 626.761,731.5 626.761,731.5 C629.79,731.5 632.245,733.955 632.245,736.984 C632.245,736.984 632.245,751.516 632.245,751.516 C632.245,754.545 629.79,757 626.761,757z">
                                  </path>
                                </g>
                                <g style="user-select: none; display: block" transform="matrix(1,0,0,1,0,-50)"
                                  opacity="1">
                                  <path style="display: block" fill="rgb(47,55,63)" fill-opacity="1"
                                    d="M0 0 M767.609,689 C767.609,689 767.609,689 767.609,689 C764.84,689 762.595,686.756 762.595,683.986 C762.595,683.986 762.595,668.514 762.595,668.514 C762.595,665.744 764.84,663.5 767.609,663.5 C770.378,663.5 772.623,665.744 772.623,668.514 C772.623,668.514 772.623,683.986 772.623,683.986 C772.623,686.756 770.378,689 767.609,689z">
                                  </path>
                                </g>
                                <g style="user-select: none; display: block" transform="matrix(1,0,0,1,0,-50)"
                                  opacity="1">
                                  <path style="display: block" fill="rgb(47,55,63)" fill-opacity="1"
                                    d="M0 0 M711.99,689 C711.99,689 632.299,689 632.299,689 C629.269,689 626.814,686.545 626.814,683.516 C626.814,683.516 626.814,668.984 626.814,668.984 C626.814,665.955 629.269,663.5 632.299,663.5 C632.299,663.5 711.99,663.5 711.99,663.5 C715.018,663.5 717.474,665.955 717.474,668.984 C717.474,668.984 717.474,683.516 717.474,683.516 C717.474,686.545 715.018,689 711.99,689z">
                                  </path>
                                </g>
                                <g style="user-select: none; display: block" transform="matrix(1,0,0,1,0,-50)"
                                  opacity="1">
                                  <path style="display: block" fill="rgb(47,55,63)" fill-opacity="1"
                                    d="M0 0 M786.356,634 C786.356,634 615.586,634 615.586,634 C612.557,634 610.102,631.545 610.102,628.516 C610.102,628.516 610.102,613.984 610.102,613.984 C610.102,610.955 612.557,608.5 615.586,608.5 C615.586,608.5 786.356,608.5 786.356,608.5 C789.385,608.5 791.84,610.955 791.84,613.984 C791.84,613.984 791.84,628.516 791.84,628.516 C791.84,631.545 789.385,634 786.356,634z">
                                  </path>
                                </g>
                                <g style="user-select: none; display: block" transform="matrix(1,0,0,1,0,0)" opacity="1">
                                  <path style="display: block" fill="rgb(47,55,63)" fill-opacity="1"
                                    d="M0 0 M604.633,483 C604.633,483 521.57,483 521.57,483 C518.3180000000001,483 515.682,480.364 515.682,477.113 C515.682,477.113 515.682,463.387 515.682,463.387 C515.682,460.136 518.3180000000001,457.5 521.57,457.5 C521.57,457.5 604.633,457.5 604.633,457.5 C607.885,457.5 610.521,460.136 610.521,463.387 C610.521,463.387 610.521,477.113 610.521,477.113 C610.521,480.364 607.885,483 604.633,483z">
                                  </path>
                                </g>
                                <g style="user-select: none; display: block" transform="matrix(1,0,0,1,0,0)" opacity="1">
                                  <path style="display: block" fill="rgb(47,55,63)" fill-opacity="1"
                                    d="M0 0 M510.615,435 C510.615,435 479.387,435 479.387,435 C476.358,435 473.903,432.54400000000004 473.903,429.516 C473.903,429.516 473.903,414.984 473.903,414.984 C473.903,411.95599999999996 476.358,409.5 479.387,409.5 C479.387,409.5 510.615,409.5 510.615,409.5 C513.644,409.5 516.099,411.95599999999996 516.099,414.984 C516.099,414.984 516.099,429.516 516.099,429.516 C516.099,432.54400000000004 513.644,435 510.615,435z">
                                  </path>
                                </g>
                                <g style="user-select: none; display: block" transform="matrix(1,0,0,1,0,0)" opacity="1">
                                  <path style="display: block" fill="rgb(47,55,63)" fill-opacity="1"
                                    d="M0 0 M574.955,376 C574.955,376 564.199,376 564.199,376 C561.17,376 558.715,373.54400000000004 558.715,370.516 C558.715,370.516 558.715,355.984 558.715,355.984 C558.715,352.95599999999996 561.17,350.5 564.199,350.5 C564.199,350.5 574.955,350.5 574.955,350.5 C577.984,350.5 580.44,352.95599999999996 580.44,355.984 C580.44,355.984 580.44,370.516 580.44,370.516 C580.44,373.54400000000004 577.984,376 574.955,376z">
                                  </path>
                                </g>
                                <g style="user-select: none; display: block" transform="matrix(1,0,0,1,0,0)" opacity="1">
                                  <path style="display: block" fill="rgb(47,55,63)" fill-opacity="1"
                                    d="M0 0 M516.464,376 C516.464,376 445.129,376 445.129,376 C442.09900000000005,376 439.644,373.54400000000004 439.644,370.516 C439.644,370.516 439.644,355.984 439.644,355.984 C439.644,352.95599999999996 442.09900000000005,350.5 445.129,350.5 C445.129,350.5 516.464,350.5 516.464,350.5 C519.493,350.5 521.948,352.95599999999996 521.948,355.984 C521.948,355.984 521.948,370.516 521.948,370.516 C521.948,373.54400000000004 519.493,376 516.464,376z">
                                  </path>
                                </g>
                              </g>
                              <g clip-path="url(#cp_RrEfVFQB)" style="display: block" transform="matrix(1,0,0,1,0,0)"
                                opacity="1">
                                <g style="user-select: none; display: block" transform="matrix(1,0,0,1,0,-51)"
                                  opacity="1">
                                  <path style="display: block" fill="rgb(234,19,122)" fill-opacity="1"
                                    d="M0 0 M810.588,757 C810.588,757 747.191,757 747.191,757 C744.162,757 741.706,754.545 741.706,751.516 C741.706,751.516 741.706,736.984 741.706,736.984 C741.706,733.955 744.162,731.5 747.191,731.5 C747.191,731.5 810.588,731.5 810.588,731.5 C813.617,731.5 816.073,733.955 816.073,736.984 C816.073,736.984 816.073,751.516 816.073,751.516 C816.073,754.545 813.617,757 810.588,757z">
                                  </path>
                                </g>
                                <g style="user-select: none; display: block" transform="matrix(1,0,0,1,0,-51)"
                                  opacity="1">
                                  <path style="display: block" fill="rgb(234,19,122)" fill-opacity="1"
                                    d="M0 0 M626.761,757 C626.761,757 616.005,757 616.005,757 C612.976,757 610.521,754.545 610.521,751.516 C610.521,751.516 610.521,736.984 610.521,736.984 C610.521,733.955 612.976,731.5 616.005,731.5 C616.005,731.5 626.761,731.5 626.761,731.5 C629.79,731.5 632.245,733.955 632.245,736.984 C632.245,736.984 632.245,751.516 632.245,751.516 C632.245,754.545 629.79,757 626.761,757z">
                                  </path>
                                </g>
                                <g style="user-select: none; display: block" transform="matrix(1,0,0,1,0,-51)"
                                  opacity="1">
                                  <path style="display: block" fill="rgb(234,19,122)" fill-opacity="1"
                                    d="M0 0 M767.609,689 C767.609,689 767.609,689 767.609,689 C764.84,689 762.595,686.756 762.595,683.986 C762.595,683.986 762.595,668.514 762.595,668.514 C762.595,665.744 764.84,663.5 767.609,663.5 C770.378,663.5 772.623,665.744 772.623,668.514 C772.623,668.514 772.623,683.986 772.623,683.986 C772.623,686.756 770.378,689 767.609,689z">
                                  </path>
                                </g>
                                <g style="user-select: none; display: block" transform="matrix(1,0,0,1,0,-51)"
                                  opacity="1">
                                  <path style="display: block" fill="rgb(234,19,122)" fill-opacity="1"
                                    d="M0 0 M711.99,689 C711.99,689 632.299,689 632.299,689 C629.269,689 626.814,686.545 626.814,683.516 C626.814,683.516 626.814,668.984 626.814,668.984 C626.814,665.955 629.269,663.5 632.299,663.5 C632.299,663.5 711.99,663.5 711.99,663.5 C715.018,663.5 717.474,665.955 717.474,668.984 C717.474,668.984 717.474,683.516 717.474,683.516 C717.474,686.545 715.018,689 711.99,689z">
                                  </path>
                                </g>
                                <g style="user-select: none; display: block" transform="matrix(1,0,0,1,0,-51)"
                                  opacity="1">
                                  <path style="display: block" fill="rgb(234,19,122)" fill-opacity="1"
                                    d="M0 0 M786.356,634 C786.356,634 615.586,634 615.586,634 C612.557,634 610.102,631.545 610.102,628.516 C610.102,628.516 610.102,613.984 610.102,613.984 C610.102,610.955 612.557,608.5 615.586,608.5 C615.586,608.5 786.356,608.5 786.356,608.5 C789.385,608.5 791.84,610.955 791.84,613.984 C791.84,613.984 791.84,628.516 791.84,628.516 C791.84,631.545 789.385,634 786.356,634z">
                                  </path>
                                </g>
                                <g style="user-select: none; display: block" transform="matrix(1,0,0,1,0,0)" opacity="1">
                                  <path style="display: block" fill="rgb(15,188,206)" fill-opacity="1"
                                    d="M0 0 M604.633,483 C604.633,483 521.57,483 521.57,483 C518.3180000000001,483 515.682,480.364 515.682,477.113 C515.682,477.113 515.682,463.387 515.682,463.387 C515.682,460.136 518.3180000000001,457.5 521.57,457.5 C521.57,457.5 604.633,457.5 604.633,457.5 C607.885,457.5 610.521,460.136 610.521,463.387 C610.521,463.387 610.521,477.113 610.521,477.113 C610.521,480.364 607.885,483 604.633,483z">
                                  </path>
                                </g>
                                <g style="user-select: none; display: block" transform="matrix(1,0,0,1,0,0)" opacity="1">
                                  <path style="display: block" fill="rgb(15,188,206)" fill-opacity="1"
                                    d="M0 0 M510.615,435 C510.615,435 479.387,435 479.387,435 C476.358,435 473.903,432.54400000000004 473.903,429.516 C473.903,429.516 473.903,414.984 473.903,414.984 C473.903,411.95599999999996 476.358,409.5 479.387,409.5 C479.387,409.5 510.615,409.5 510.615,409.5 C513.644,409.5 516.099,411.95599999999996 516.099,414.984 C516.099,414.984 516.099,429.516 516.099,429.516 C516.099,432.54400000000004 513.644,435 510.615,435z">
                                  </path>
                                </g>
                                <g style="user-select: none; display: block" transform="matrix(1,0,0,1,0,0)" opacity="1">
                                  <path style="display: block" fill="rgb(15,188,206)" fill-opacity="1"
                                    d="M0 0 M574.955,376 C574.955,376 564.199,376 564.199,376 C561.17,376 558.715,373.54400000000004 558.715,370.516 C558.715,370.516 558.715,355.984 558.715,355.984 C558.715,352.95599999999996 561.17,350.5 564.199,350.5 C564.199,350.5 574.955,350.5 574.955,350.5 C577.984,350.5 580.44,352.95599999999996 580.44,355.984 C580.44,355.984 580.44,370.516 580.44,370.516 C580.44,373.54400000000004 577.984,376 574.955,376z">
                                  </path>
                                </g>
                                <g style="user-select: none; display: block" transform="matrix(1,0,0,1,0,0)" opacity="1">
                                  <path style="display: block" fill="rgb(15,188,206)" fill-opacity="1"
                                    d="M0 0 M516.464,376 C516.464,376 445.129,376 445.129,376 C442.09900000000005,376 439.644,373.54400000000004 439.644,370.516 C439.644,370.516 439.644,355.984 439.644,355.984 C439.644,352.95599999999996 442.09900000000005,350.5 445.129,350.5 C445.129,350.5 516.464,350.5 516.464,350.5 C519.493,350.5 521.948,352.95599999999996 521.948,355.984 C521.948,355.984 521.948,370.516 521.948,370.516 C521.948,373.54400000000004 519.493,376 516.464,376z">
                                  </path>
                                </g>
                              </g>
                            </g>
                            <g clip-path="url(#cp_9tX8EIo5)" transform="matrix(1,0,0,1,0,0)" opacity="1">
                              <g style="user-select: none"
                                transform="matrix(1.06416,0,0,1.06416,597.3983344,626.3922064000001)" opacity="1">
                                <g opacity="1" transform="matrix(0.61864,0,0,0.61864,-78.59,-335.29)">
                                  <path stroke-linecap="butt" stroke-linejoin="miter" fill-opacity="0"
                                    stroke-miterlimit="4" stroke="rgb(255,175,37)" stroke-opacity="1" stroke-width="4"
                                    d="M0 0"></path>
                                </g>
                              </g>
                              <g style="user-select: none" transform="matrix(0.67,0,0,0.67,566.4213,494.23429999999996)"
                                opacity="1">
                                <g opacity="1" transform="matrix(0.61864,0,0,0.61864,-78.59,-335.29)">
                                  <path fill="rgb(255,175,37)" fill-opacity="1"
                                    d="M0 0 M0,-30.41 C16.783278999999997,-30.41 30.41,-16.783278999999997 30.41,0 C30.41,16.783278999999997 16.783278999999997,30.41 0,30.41 C-16.783278999999997,30.41 -30.41,16.783278999999997 -30.41,0 C-30.41,-16.783278999999997 -16.783278999999997,-30.41 0,-30.41zM0 0 M-1.532,20.289 C-1.532,20.289 2.491,20.289 2.491,20.289 C2.491,20.289 2.491,16.687 2.491,16.687 C7.776999999999999,15.798000000000002 10.911,11.962 10.911,6.957 C10.911,-3.194 -3.309,-2.399 -3.309,-7.825 C-3.309,-9.603 -1.999,-10.959 0.246,-10.959 C3.099,-10.959 4.315,-8.948 5.017,-7.404 C5.017,-7.404 10.49,-9.883 10.49,-9.883 C9.788,-11.988 7.542999999999999,-15.964000000000002 2.491,-16.853 C2.491,-16.853 2.491,-19.519 2.491,-19.519 C2.491,-19.519 -1.532,-19.519 -1.532,-19.519 C-1.532,-19.519 -1.532,-16.899 -1.532,-16.899 C-6.724,-16.197000000000003 -9.905,-12.643 -9.905,-7.731 C-9.905,2.747 4.222,1.8119999999999994 4.222,7.425 C4.222,9.53 2.771,10.793 0.339,10.793 C-2.608,10.793 -4.4319999999999995,8.782 -5.321,6.63 C-5.321,6.63 -10.887,9.343 -10.887,9.343 C-10.045,11.822 -7.473,16.219 -1.532,16.827 C-1.532,16.827 -1.532,20.289 -1.532,20.289z">
                                  </path>
                                </g>
                              </g>
                            </g>
                            <g clip-path="url(#cp_97jtO8GF)" style="display: block"
                              transform="matrix(1,0,0,1,170.14999999999998,0)" opacity="1">
                              <g style="user-select: none; display: block"
                                transform="matrix(1.06416,0,0,1.06416,597.3983344,626.3922064000001)" opacity="1">
                                <g opacity="1" transform="matrix(0.61864,0,0,0.61864,-78.59,-335.29)">
                                  <path stroke-linecap="butt" stroke-linejoin="miter" fill-opacity="0"
                                    stroke-miterlimit="4" style="display: block" stroke="rgb(255,175,37)"
                                    stroke-opacity="1" stroke-width="4" d="M0 0"></path>
                                </g>
                              </g>
                              <g style="user-select: none; display: block"
                                transform="matrix(0.67,0,0,0.67,566.4213,494.23429999999996)" opacity="1">
                                <g opacity="1" transform="matrix(0.61864,0,0,0.61864,-78.59,-335.29)">
                                  <path style="display: block" fill="rgb(255,175,37)" fill-opacity="1"
                                    d="M0 0 M0,-30.41 C16.783278999999997,-30.41 30.41,-16.783278999999997 30.41,0 C30.41,16.783278999999997 16.783278999999997,30.41 0,30.41 C-16.783278999999997,30.41 -30.41,16.783278999999997 -30.41,0 C-30.41,-16.783278999999997 -16.783278999999997,-30.41 0,-30.41zM0 0 M-1.532,20.289 C-1.532,20.289 2.491,20.289 2.491,20.289 C2.491,20.289 2.491,16.687 2.491,16.687 C7.776999999999999,15.798000000000002 10.911,11.962 10.911,6.957 C10.911,-3.194 -3.309,-2.399 -3.309,-7.825 C-3.309,-9.603 -1.999,-10.959 0.246,-10.959 C3.099,-10.959 4.315,-8.948 5.017,-7.404 C5.017,-7.404 10.49,-9.883 10.49,-9.883 C9.788,-11.988 7.542999999999999,-15.964000000000002 2.491,-16.853 C2.491,-16.853 2.491,-19.519 2.491,-19.519 C2.491,-19.519 -1.532,-19.519 -1.532,-19.519 C-1.532,-19.519 -1.532,-16.899 -1.532,-16.899 C-6.724,-16.197000000000003 -9.905,-12.643 -9.905,-7.731 C-9.905,2.747 4.222,1.8119999999999994 4.222,7.425 C4.222,9.53 2.771,10.793 0.339,10.793 C-2.608,10.793 -4.4319999999999995,8.782 -5.321,6.63 C-5.321,6.63 -10.887,9.343 -10.887,9.343 C-10.045,11.822 -7.473,16.219 -1.532,16.827 C-1.532,16.827 -1.532,20.289 -1.532,20.289z">
                                  </path>
                                </g>
                              </g>
                            </g>
                            <g fill="rgb(46,56,64)" font-size="18" font-family="Avenir Next" font-style="normal"
                              font-weight="700"
                              transform="matrix(6.123233995736766e-17,-1,1,6.123233995736766e-17,402,439)" opacity="1">
                              <path style="display: inherit" stroke-linecap="butt" stroke-linejoin="round"
                                stroke-miterlimit="4"
                                d=" M1,0 C1,0 4,0 4,0 C4,0 4,-10 4,-10 C4,-10 4,-10 4,-10 C4,-10 7,0 7,0 C7,0 9,0 9,0 C9,0 13,-10 13,-10 C13,-10 13,-10 13,-10 C13,-10 13,0 13,0 C13,0 15,0 15,0 C15,0 15,-13 15,-13 C15,-13 12,-13 12,-13 C12,-13 8,-4 8,-4 C8,-4 8,-4 8,-4 C8,-4 5,-13 5,-13 C5,-13 1,-13 1,-13 C1,-13 1,0 1,0z M18,0 C18,0 20,0 20,0 C20,0 20,-13 20,-13 C20,-13 18,-13 18,-13 C18,-13 18,0 18,0z M23,0 C23,0 31,0 31,0 C31,0 31,-2 31,-2 C31,-2 25,-2 25,-2 C25,-2 25,-13 25,-13 C25,-13 23,-13 23,-13 C23,-13 23,0 23,0z M40,-12 C40,-12 39,-12 38,-13 C38,-13 37,-13 37,-13 C36,-13 35,-13 35,-13 C34,-13 34,-12 33,-12 C33,-12 33,-11 32,-11 C32,-11 32,-10 32,-9 C32,-9 32,-8 32,-8 C32,-7 33,-7 33,-7 C33,-7 34,-6 34,-6 C34,-6 35,-6 35,-6 C35,-6 36,-5 36,-5 C37,-5 37,-5 37,-5 C37,-5 38,-5 38,-4 C38,-4 38,-4 38,-3 C38,-3 38,-3 38,-3 C38,-2 37,-2 37,-2 C37,-2 37,-2 37,-2 C36,-2 36,-2 36,-2 C35,-2 35,-2 34,-2 C34,-2 33,-3 33,-3 C33,-3 31,-1 31,-1 C32,-1 32,0 33,0 C34,0 35,0 36,0 C36,0 37,0 37,0 C38,0 38,0 39,-1 C39,-1 40,-1 40,-2 C40,-2 40,-3 40,-4 C40,-4 40,-5 40,-5 C40,-6 39,-6 39,-6 C39,-7 38,-7 38,-7 C37,-7 37,-7 37,-7 C36,-8 36,-8 36,-8 C35,-8 35,-8 35,-8 C35,-8 34,-8 34,-9 C34,-9 34,-9 34,-9 C34,-10 34,-10 34,-10 C34,-10 35,-11 35,-11 C35,-11 35,-11 36,-11 C36,-11 36,-11 36,-11 C37,-11 37,-11 38,-11 C38,-11 38,-10 39,-10 C39,-10 40,-12 40,-12z M45,0 C45,0 47,0 47,0 C47,0 47,-11 47,-11 C47,-11 51,-11 51,-11 C51,-11 51,-13 51,-13 C51,-13 41,-13 41,-13 C41,-13 41,-11 41,-11 C41,-11 45,-11 45,-11 C45,-11 45,0 45,0z M53,-4 C53,-3 54,-2 54,-2 C55,-1 55,-1 56,0 C57,0 58,0 59,0 C60,0 61,0 62,0 C63,-1 63,-1 64,-2 C65,-2 65,-3 65,-4 C66,-5 66,-5 66,-6 C66,-7 66,-8 65,-9 C65,-10 65,-11 64,-11 C63,-12 63,-12 62,-13 C61,-13 60,-13 59,-13 C58,-13 57,-13 56,-13 C55,-12 55,-12 54,-11 C54,-11 53,-10 53,-9 C52,-8 52,-7 52,-6 C52,-5 52,-5 53,-4z M55,-8 C55,-9 55,-9 56,-10 C56,-10 57,-10 57,-11 C58,-11 58,-11 59,-11 C60,-11 60,-11 61,-11 C61,-10 62,-10 62,-10 C63,-9 63,-9 63,-8 C63,-8 63,-7 63,-6 C63,-6 63,-5 63,-5 C63,-4 63,-3 62,-3 C62,-3 61,-2 61,-2 C60,-2 60,-2 59,-2 C58,-2 58,-2 57,-2 C57,-2 56,-3 56,-3 C55,-3 55,-4 55,-5 C55,-5 55,-6 55,-6 C55,-7 55,-8 55,-8z M68,0 C68,0 70,0 70,0 C70,0 70,-10 70,-10 C70,-10 70,-10 70,-10 C70,-10 76,0 76,0 C76,0 79,0 79,0 C79,0 79,-13 79,-13 C79,-13 77,-13 77,-13 C77,-13 77,-3 77,-3 C77,-3 77,-3 77,-3 C77,-3 71,-13 71,-13 C71,-13 68,-13 68,-13 C68,-13 68,0 68,0z M82,0 C82,0 91,0 91,0 C91,0 91,-2 91,-2 C91,-2 84,-2 84,-2 C84,-2 84,-6 84,-6 C84,-6 90,-6 90,-6 C90,-6 90,-8 90,-8 C90,-8 84,-8 84,-8 C84,-8 84,-11 84,-11 C84,-11 91,-11 91,-11 C91,-11 91,-13 91,-13 C91,-13 82,-13 82,-13 C82,-13 82,0 82,0z M101,0 C101,0 103,0 103,0 C103,0 103,-13 103,-13 C103,-13 101,-13 101,-13 C101,-13 97,-10 97,-10 C97,-10 99,-8 99,-8 C99,-8 101,-10 101,-10 C101,-10 101,0 101,0z">
                              </path>
                            </g>
                            <g fill="rgb(46,56,64)" font-size="18" font-family="Avenir Next" font-style="normal"
                              font-weight="700"
                              transform="matrix(6.123233995736766e-17,-1,1,6.123233995736766e-17,402,664.5)" opacity="1">
                              <path style="display: inherit" stroke-linecap="butt" stroke-linejoin="round"
                                stroke-miterlimit="4"
                                d=" M1,0 C1,0 4,0 4,0 C4,0 4,-10 4,-10 C4,-10 4,-10 4,-10 C4,-10 7,0 7,0 C7,0 9,0 9,0 C9,0 13,-10 13,-10 C13,-10 13,-10 13,-10 C13,-10 13,0 13,0 C13,0 15,0 15,0 C15,0 15,-13 15,-13 C15,-13 12,-13 12,-13 C12,-13 8,-4 8,-4 C8,-4 8,-4 8,-4 C8,-4 5,-13 5,-13 C5,-13 1,-13 1,-13 C1,-13 1,0 1,0z M18,0 C18,0 20,0 20,0 C20,0 20,-13 20,-13 C20,-13 18,-13 18,-13 C18,-13 18,0 18,0z M23,0 C23,0 31,0 31,0 C31,0 31,-2 31,-2 C31,-2 25,-2 25,-2 C25,-2 25,-13 25,-13 C25,-13 23,-13 23,-13 C23,-13 23,0 23,0z M40,-12 C40,-12 39,-12 38,-13 C38,-13 37,-13 37,-13 C36,-13 35,-13 35,-13 C34,-13 34,-12 33,-12 C33,-12 33,-11 32,-11 C32,-11 32,-10 32,-9 C32,-9 32,-8 32,-8 C32,-7 33,-7 33,-7 C33,-7 34,-6 34,-6 C34,-6 35,-6 35,-6 C35,-6 36,-5 36,-5 C37,-5 37,-5 37,-5 C37,-5 38,-5 38,-4 C38,-4 38,-4 38,-3 C38,-3 38,-3 38,-3 C38,-2 37,-2 37,-2 C37,-2 37,-2 37,-2 C36,-2 36,-2 36,-2 C35,-2 35,-2 34,-2 C34,-2 33,-3 33,-3 C33,-3 31,-1 31,-1 C32,-1 32,0 33,0 C34,0 35,0 36,0 C36,0 37,0 37,0 C38,0 38,0 39,-1 C39,-1 40,-1 40,-2 C40,-2 40,-3 40,-4 C40,-4 40,-5 40,-5 C40,-6 39,-6 39,-6 C39,-7 38,-7 38,-7 C37,-7 37,-7 37,-7 C36,-8 36,-8 36,-8 C35,-8 35,-8 35,-8 C35,-8 34,-8 34,-9 C34,-9 34,-9 34,-9 C34,-10 34,-10 34,-10 C34,-10 35,-11 35,-11 C35,-11 35,-11 36,-11 C36,-11 36,-11 36,-11 C37,-11 37,-11 38,-11 C38,-11 38,-10 39,-10 C39,-10 40,-12 40,-12z M45,0 C45,0 47,0 47,0 C47,0 47,-11 47,-11 C47,-11 51,-11 51,-11 C51,-11 51,-13 51,-13 C51,-13 41,-13 41,-13 C41,-13 41,-11 41,-11 C41,-11 45,-11 45,-11 C45,-11 45,0 45,0z M53,-4 C53,-3 54,-2 54,-2 C55,-1 55,-1 56,0 C57,0 58,0 59,0 C60,0 61,0 62,0 C63,-1 63,-1 64,-2 C65,-2 65,-3 65,-4 C66,-5 66,-5 66,-6 C66,-7 66,-8 65,-9 C65,-10 65,-11 64,-11 C63,-12 63,-12 62,-13 C61,-13 60,-13 59,-13 C58,-13 57,-13 56,-13 C55,-12 55,-12 54,-11 C54,-11 53,-10 53,-9 C52,-8 52,-7 52,-6 C52,-5 52,-5 53,-4z M55,-8 C55,-9 55,-9 56,-10 C56,-10 57,-10 57,-11 C58,-11 58,-11 59,-11 C60,-11 60,-11 61,-11 C61,-10 62,-10 62,-10 C63,-9 63,-9 63,-8 C63,-8 63,-7 63,-6 C63,-6 63,-5 63,-5 C63,-4 63,-3 62,-3 C62,-3 61,-2 61,-2 C60,-2 60,-2 59,-2 C58,-2 58,-2 57,-2 C57,-2 56,-3 56,-3 C55,-3 55,-4 55,-5 C55,-5 55,-6 55,-6 C55,-7 55,-8 55,-8z M68,0 C68,0 70,0 70,0 C70,0 70,-10 70,-10 C70,-10 70,-10 70,-10 C70,-10 76,0 76,0 C76,0 79,0 79,0 C79,0 79,-13 79,-13 C79,-13 77,-13 77,-13 C77,-13 77,-3 77,-3 C77,-3 77,-3 77,-3 C77,-3 71,-13 71,-13 C71,-13 68,-13 68,-13 C68,-13 68,0 68,0z M82,0 C82,0 91,0 91,0 C91,0 91,-2 91,-2 C91,-2 84,-2 84,-2 C84,-2 84,-6 84,-6 C84,-6 90,-6 90,-6 C90,-6 90,-8 90,-8 C90,-8 84,-8 84,-8 C84,-8 84,-11 84,-11 C84,-11 91,-11 91,-11 C91,-11 91,-13 91,-13 C91,-13 82,-13 82,-13 C82,-13 82,0 82,0z M97,0 C97,0 106,0 106,0 C106,0 106,-2 106,-2 C106,-2 100,-2 100,-2 C100,-2 104,-5 104,-5 C104,-6 104,-6 105,-6 C105,-7 105,-7 105,-7 C105,-8 106,-8 106,-8 C106,-9 106,-9 106,-9 C106,-10 106,-10 106,-11 C105,-11 105,-12 105,-12 C104,-12 104,-13 103,-13 C103,-13 102,-13 102,-13 C101,-13 101,-13 100,-13 C100,-13 99,-12 99,-12 C98,-12 98,-11 98,-11 C98,-10 97,-10 97,-9 C97,-9 99,-9 99,-9 C100,-10 100,-10 100,-11 C101,-11 101,-11 102,-11 C102,-11 103,-11 103,-11 C103,-10 104,-10 104,-9 C104,-9 104,-8 103,-8 C103,-8 103,-7 102,-7 C102,-7 97,-2 97,-2 C97,-2 97,0 97,0z">
                              </path>
                            </g>
                            <g fill="rgb(26,31,36)" font-size="18" font-family="Avenir Next" font-style="normal"
                              font-weight="700" transform="matrix(1,0,0,1,447,370)" opacity="1">
                              <path style="display: inherit" stroke-linecap="butt" stroke-linejoin="round"
                                stroke-miterlimit="4"
                                d=" M4,0 C4,0 6,0 6,0 C6,0 6,-11 6,-11 C6,-11 10,-11 10,-11 C10,-11 10,-13 10,-13 C10,-13 0,-13 0,-13 C0,-13 0,-11 0,-11 C0,-11 4,-11 4,-11 C4,-11 4,0 4,0z M15,0 C15,0 17,0 17,0 C17,0 17,-13 17,-13 C17,-13 15,-13 15,-13 C15,-13 11,-10 11,-10 C11,-10 13,-8 13,-8 C13,-8 15,-10 15,-10 C15,-10 15,0 15,0z">
                              </path>
                            </g>
                            <g fill="rgb(26,31,36)" font-size="18" font-family="Avenir Next" font-style="normal"
                              font-weight="700" transform="matrix(1,0,0,1,481,429)" opacity="1">
                              <path style="display: inherit" stroke-linecap="butt" stroke-linejoin="round"
                                stroke-miterlimit="4"
                                d=" M4,0 C4,0 6,0 6,0 C6,0 6,-11 6,-11 C6,-11 10,-11 10,-11 C10,-11 10,-13 10,-13 C10,-13 0,-13 0,-13 C0,-13 0,-11 0,-11 C0,-11 4,-11 4,-11 C4,-11 4,0 4,0z M14,-6 C14,-6 15,-6 15,-6 C15,-6 15,-6 16,-6 C16,-6 16,-5 17,-5 C17,-5 17,-5 17,-5 C18,-4 18,-4 18,-4 C18,-3 18,-3 17,-3 C17,-2 17,-2 17,-2 C17,-2 16,-2 16,-2 C16,-2 16,-2 15,-2 C15,-2 14,-2 14,-2 C13,-2 13,-3 13,-3 C13,-3 11,-3 11,-3 C11,-2 11,-2 11,-1 C12,-1 12,-1 13,0 C13,0 13,0 14,0 C14,0 15,0 15,0 C16,0 16,0 17,0 C18,0 18,0 18,-1 C19,-1 19,-1 19,-2 C20,-2 20,-3 20,-4 C20,-4 20,-5 19,-6 C19,-6 18,-7 17,-7 C17,-7 17,-7 17,-7 C18,-7 18,-7 19,-8 C19,-8 19,-9 19,-10 C19,-10 19,-11 19,-11 C19,-12 19,-12 18,-12 C18,-12 17,-13 17,-13 C16,-13 16,-13 15,-13 C15,-13 14,-13 14,-13 C14,-13 13,-13 13,-12 C12,-12 12,-12 12,-11 C12,-11 11,-11 11,-10 C11,-10 13,-10 13,-10 C13,-10 14,-11 14,-11 C14,-11 15,-11 15,-11 C16,-11 16,-11 16,-11 C16,-11 17,-11 17,-11 C17,-11 17,-10 17,-10 C17,-10 17,-10 17,-9 C17,-9 17,-9 17,-8 C17,-8 17,-8 16,-8 C16,-8 16,-8 16,-8 C15,-8 15,-8 15,-8 C15,-8 14,-8 14,-8 C14,-8 14,-6 14,-6z">
                              </path>
                            </g>
                            <g fill="rgb(26,31,36)" font-size="18" font-family="Avenir Next" font-style="normal"
                              font-weight="700" transform="matrix(1,0,0,1,525,476)" opacity="1">
                              <path style="display: inherit" stroke-linecap="butt" stroke-linejoin="round"
                                stroke-miterlimit="4"
                                d=" M4,0 C4,0 6,0 6,0 C6,0 6,-11 6,-11 C6,-11 10,-11 10,-11 C10,-11 10,-13 10,-13 C10,-13 0,-13 0,-13 C0,-13 0,-11 0,-11 C0,-11 4,-11 4,-11 C4,-11 4,0 4,0z M16,0 C16,0 19,0 19,0 C19,0 19,-3 19,-3 C19,-3 20,-3 20,-3 C20,-3 20,-4 20,-4 C20,-4 19,-4 19,-4 C19,-4 19,-13 19,-13 C19,-13 16,-13 16,-13 C16,-13 11,-5 11,-5 C11,-5 11,-3 11,-3 C11,-3 16,-3 16,-3 C16,-3 16,0 16,0z M16,-4 C16,-4 13,-4 13,-4 C13,-4 16,-10 16,-10 C16,-10 16,-10 16,-10 C16,-10 16,-4 16,-4z">
                              </path>
                            </g>
                            <g fill="rgb(26,31,36)" font-size="18" font-family="Avenir Next" font-style="normal"
                              font-weight="700" transform="matrix(1,0,0,1,618,577)" opacity="1">
                              <path style="display: inherit" stroke-linecap="butt" stroke-linejoin="round"
                                stroke-miterlimit="4"
                                d=" M4,0 C4,0 6,0 6,0 C6,0 6,-11 6,-11 C6,-11 10,-11 10,-11 C10,-11 10,-13 10,-13 C10,-13 0,-13 0,-13 C0,-13 0,-11 0,-11 C0,-11 4,-11 4,-11 C4,-11 4,0 4,0z M15,0 C15,0 17,0 17,0 C17,0 17,-13 17,-13 C17,-13 15,-13 15,-13 C15,-13 11,-10 11,-10 C11,-10 13,-8 13,-8 C13,-8 15,-10 15,-10 C15,-10 15,0 15,0z">
                              </path>
                            </g>
                            <g fill="rgb(26,31,36)" font-size="18" font-family="Avenir Next" font-style="normal"
                              font-weight="700" transform="matrix(1,0,0,1,633,631)" opacity="1">
                              <path style="display: inherit" stroke-linecap="butt" stroke-linejoin="round"
                                stroke-miterlimit="4"
                                d=" M4,0 C4,0 6,0 6,0 C6,0 6,-11 6,-11 C6,-11 10,-11 10,-11 C10,-11 10,-13 10,-13 C10,-13 0,-13 0,-13 C0,-13 0,-11 0,-11 C0,-11 4,-11 4,-11 C4,-11 4,0 4,0z M11,0 C11,0 20,0 20,0 C20,0 20,-2 20,-2 C20,-2 14,-2 14,-2 C14,-2 18,-5 18,-5 C18,-6 18,-6 19,-6 C19,-7 19,-7 19,-7 C20,-8 20,-8 20,-8 C20,-9 20,-9 20,-9 C20,-10 20,-10 20,-11 C19,-11 19,-12 19,-12 C18,-12 18,-13 17,-13 C17,-13 16,-13 16,-13 C15,-13 15,-13 14,-13 C14,-13 13,-12 13,-12 C12,-12 12,-11 12,-11 C12,-10 11,-10 11,-9 C11,-9 13,-9 13,-9 C14,-10 14,-10 14,-11 C15,-11 15,-11 16,-11 C16,-11 17,-11 17,-11 C17,-10 18,-10 18,-9 C18,-9 18,-8 17,-8 C17,-8 17,-7 16,-7 C16,-7 11,-2 11,-2 C11,-2 11,0 11,0z">
                              </path>
                            </g>
                            <g fill="rgb(26,31,36)" font-size="18" font-family="Avenir Next" font-style="normal"
                              font-weight="700" transform="matrix(1,0,0,1,747,700)" opacity="1">
                              <path style="display: inherit" stroke-linecap="butt" stroke-linejoin="round"
                                stroke-miterlimit="4"
                                d=" M4,0 C4,0 6,0 6,0 C6,0 6,-11 6,-11 C6,-11 10,-11 10,-11 C10,-11 10,-13 10,-13 C10,-13 0,-13 0,-13 C0,-13 0,-11 0,-11 C0,-11 4,-11 4,-11 C4,-11 4,0 4,0z M19,-13 C19,-13 12,-13 12,-13 C12,-13 12,-6 12,-6 C12,-6 12,-6 13,-6 C13,-6 13,-6 13,-6 C14,-6 14,-6 14,-6 C14,-6 15,-6 15,-6 C15,-6 16,-6 16,-6 C16,-6 16,-6 17,-6 C17,-6 17,-5 17,-5 C18,-5 18,-4 18,-4 C18,-4 18,-3 17,-3 C17,-3 17,-2 17,-2 C17,-2 16,-2 16,-2 C16,-2 16,-2 15,-2 C15,-2 14,-2 14,-2 C13,-2 13,-3 13,-3 C13,-3 11,-2 11,-2 C11,-2 12,-1 13,0 C13,0 14,0 15,0 C16,0 16,0 17,0 C18,0 18,0 19,-1 C19,-1 19,-2 20,-2 C20,-3 20,-3 20,-4 C20,-5 20,-5 20,-6 C19,-6 19,-7 19,-7 C18,-7 18,-8 17,-8 C17,-8 16,-8 15,-8 C15,-8 15,-8 15,-8 C14,-8 14,-8 14,-8 C14,-8 14,-11 14,-11 C14,-11 19,-11 19,-11 C19,-11 19,-13 19,-13z">
                              </path>
                            </g>
                          </g>
                        </g>
                      </svg>