<?xml version="1.0" encoding="UTF-8"?>
<svg width="36px" height="41px" viewBox="0 0 36 41" version="1.1" xmlns="http://www.w3.org/2000/svg" xmlns:xlink="http://www.w3.org/1999/xlink">
    <!-- Generator: Sketch 59.1 (86144) - https://sketch.com -->
    <title>Group 24</title>
    <desc>Created with Sketch.</desc>
    <defs>
        <linearGradient x1="97.5671243%" y1="100%" x2="12.8710189%" y2="0%" id="linearGradient-1">
            <stop stop-color="#E8467B" offset="0%"></stop>
            <stop stop-color="#00B2E9" offset="100%"></stop>
        </linearGradient>
    </defs>
    <g id="intelia---ccrafta" stroke="none" stroke-width="1" fill="none" fill-rule="evenodd">
        <g id="Artboard" transform="translate(-64.000000, -58.000000)" fill="url(#linearGradient-1)" fill-rule="nonzero">
            <g id="Group-24" transform="translate(64.000000, 57.464286)">
                <path d="M18,21.2857143 C27.5269119,21.2857143 35.25,29.0088024 35.25,38.5357143 L35.25,40.7857143 L0.75,40.7857143 L0.75,38.5357143 C0.75,29.2320683 8.11534411,21.6486905 17.3332505,21.298363 C17.3874468,21.2894918 17.4432822,21.2857143 17.5,21.2857143 C17.5322755,21.2857143 17.5642653,21.2869375 17.5959256,21.2893402 C17.7300484,21.2872687 17.8648427,21.2857143 18,21.2857143 Z M3.25207592,38.2857143 L16.25,38.285 L16.2501002,23.8884329 C9.00963477,24.7442746 3.37573678,30.8445916 3.25207592,38.2857143 Z M18.7511315,34.7949179 L18.75,38.285 L22.1147224,38.2843705 C21.281752,36.0642643 20.166943,34.9620566 18.7511315,34.7949179 Z M18.7507794,23.8044908 L18.751396,26.3806397 C22.0442757,26.910725 24.7800449,28.3521865 26.913463,30.6938784 C28.638041,32.5868174 29.7527095,34.6259632 30.3742104,36.6724867 C30.5568963,37.2740482 30.6817019,37.8166492 30.7620451,38.2864448 L32.7479241,38.2857143 L32.7393334,37.9695281 C32.4512017,30.3351918 26.3608585,24.1860208 18.7507794,23.8044908 Z M18.7515545,28.9185828 L18.7509267,32.281387 C21.5541184,32.4444505 23.5654877,34.5402151 24.7552996,38.284998 L28.2123135,38.2870399 C28.1521983,38.0053002 28.076099,37.7085176 27.9820852,37.3989419 C27.464763,35.6954654 26.5295501,33.9846112 25.0654237,32.3775502 C23.406105,30.5562414 21.3144106,29.4064375 18.7515545,28.9185828 Z M17.5,0.75 C22.3324916,0.75 26.25,4.66750844 26.25,9.5 C26.25,14.3324916 22.3324916,18.25 17.5,18.25 C12.6675084,18.25 8.75,14.3324916 8.75,9.5 C8.75,4.66750844 12.6675084,0.75 17.5,0.75 Z M17.5,3.25 C14.0482203,3.25 11.25,6.04822031 11.25,9.5 C11.25,12.9517797 14.0482203,15.75 17.5,15.75 C20.9517797,15.75 23.75,12.9517797 23.75,9.5 C23.75,6.04822031 20.9517797,3.25 17.5,3.25 Z" id="Combined-Shape"></path>
            </g>
        </g>
    </g>
</svg>